<?xml version="1.0" standalone="no"?>
<!DOCTYPE svg PUBLIC "-//W3C//DTD SVG 1.1//EN" "http://www.w3.org/Graphics/SVG/1.1/DTD/svg11.dtd" >
<svg>
<metadata>
Created by FontForge 20110222 at Fri Feb 10 11:36:09 2012
 By www-data
Copyright (c) 2011 by . All rights reserved.
</metadata>
<defs>
<font id="Archive" horiz-adv-x="655" >
  <font-face 
    font-family="Archive"
    font-weight="400"
    font-stretch="normal"
    units-per-em="1000"
    panose-1="2 0 5 6 4 0 0 2 0 4"
    ascent="750"
    descent="-250"
    x-height="658"
    cap-height="658"
    bbox="0 -286 1187 921"
    underline-thickness="50"
    underline-position="-50"
    stemh="140"
    stemv="157"
    unicode-range="U+0020-20AC"
  />
    <missing-glyph />
    <glyph glyph-name="B" unicode="B" horiz-adv-x="687" 
d="M543 341c8 -3 92 -41 92 -149c0 -127 -99 -192 -238 -192h-294c-23 0 -29 11 -29 29v601c0 18 6 29 29 29h280c163 0 233 -87 233 -181c0 -101 -64 -133 -73 -137zM399 142c49 0 77 20 77 65c0 47 -35 61 -83 61h-23c-23 0 -29 11 -29 29v76c0 18 6 29 29 29h13v0
c58 0 83 21 83 60c0 45 -31 56 -83 56h-152v-376h168z" />
    <glyph glyph-name="C" unicode="C" horiz-adv-x="632" 
d="M581 195c0 -129 -136 -210 -260 -210c-119 0 -268 69 -268 226v236c0 157 149 226 268 226c124 0 247 -63 260 -190c0 -24 -8 -29 -31 -29h-96c-21 0 -22 19 -30 31c-21 33 -49 48 -103 48c-66 0 -111 -37 -111 -100v-208c0 -64 45 -100 111 -100c54 0 97 20 105 68
c3 20 5 36 27 36h98c22 0 30 -10 30 -34z" />
    <glyph glyph-name="D" unicode="D" horiz-adv-x="650" 
d="M327 658c119 0 269 -69 269 -225v-208c0 -157 -150 -225 -269 -225h-224c-23 0 -29 11 -29 29v600c0 18 6 29 29 29h224zM439 239v180c0 63 -46 100 -112 100h-96v-380h96c66 0 112 36 112 100z" />
    <glyph glyph-name="E" unicode="E" horiz-adv-x="627" 
d="M551 140c23 0 29 -11 29 -29v-82c0 -18 -6 -29 -29 -29h-448c-23 0 -29 11 -29 29v600c0 18 6 29 29 29h431c23 0 29 -11 29 -29v-83c0 -18 -6 -29 -29 -29h-302v-109h268c23 0 29 -11 29 -29v-78c0 -18 -6 -29 -29 -29h-268v-132h319z" />
    <glyph glyph-name="F" unicode="F" horiz-adv-x="602" 
d="M533 658c23 0 29 -11 29 -29v-82c0 -18 -6 -29 -29 -29h-302v-117h260c23 0 29 -11 29 -29v-79c0 -18 -6 -29 -29 -29h-260v-234c0 -26 -6 -30 -29 -30h-99c-23 0 -29 11 -29 29v600c0 18 6 29 29 29h430z" />
    <glyph glyph-name="G" unicode="G" horiz-adv-x="646" 
d="M563 367c23 0 29 -11 29 -29v-145c-9 -144 -155 -208 -269 -208c-118 0 -269 60 -269 217v246c0 158 151 225 269 225c125 0 269 -72 269 -206c0 -24 -6 -28 -29 -28h-97c-28 0 -24 20 -29 34c-11 31 -47 61 -114 61c-66 0 -110 -44 -110 -108v-201
c0 -64 44 -101 110 -101c65 0 111 30 111 107h-90c-23 0 -29 11 -29 29v78c0 18 6 29 29 29h219z" />
    <glyph glyph-name="H" unicode="H" horiz-adv-x="685" 
d="M582 658c18 0 29 -6 29 -29v-600c0 -23 -11 -29 -29 -29h-99c-18 0 -29 6 -29 29v226h-223v-226c0 -23 -10 -29 -29 -29h-99c-18 0 -29 6 -29 29v600c0 23 11 29 29 29h99c19 0 29 -6 29 -29v-226h223v226c0 23 11 29 29 29h99z" />
    <glyph glyph-name="I" unicode="I" horiz-adv-x="444" 
d="M360 137c23 0 29 -11 29 -29v-79c0 -18 -6 -29 -29 -29h-283c-23 0 -29 11 -29 29v79c0 18 6 29 29 29h63v382h-61c-23 0 -29 11 -29 29v81c0 18 6 29 29 29h278c23 0 29 -11 29 -29v-81c0 -18 -6 -29 -29 -29h-60v-382h63z" />
    <glyph glyph-name="zero" unicode="0" horiz-adv-x="599" 
d="M299 673c111 0 250 -69 250 -227v-234c0 -158 -139 -227 -250 -227c-110 0 -249 69 -249 227v234c0 158 139 227 249 227zM403 234v190c0 64 -43 109 -104 109s-103 -45 -103 -109v-190c0 -64 42 -109 103 -109s104 45 104 109z" />
    <glyph glyph-name="one" unicode="1" horiz-adv-x="492" 
d="M405 140c23 0 29 -11 29 -29v-82c0 -18 -6 -29 -29 -29h-310c-23 0 -29 11 -29 29v82c0 18 6 29 29 29h85v268h-85c-23 0 -29 10 -29 29v81c0 19 6 29 29 29h22c19 0 63 9 63 84v0c1 21 12 26 29 26h97c17 0 28 -5 29 -26v0v-3v-488h70z" />
    <glyph glyph-name="two" unicode="2" horiz-adv-x="559" 
d="M484 140c23 0 29 -11 29 -29v-82c0 -18 -6 -29 -29 -29h-414c-23 0 -27 6 -27 29v74c0 22 9 35 18 42c0 0 85 75 182 157c64 55 127 109 127 161s-37 74 -85 74c-54 0 -101 -44 -101 -102c0 -17 -5 -28 -26 -28h-88c-20 0 -27 8 -27 30c0 166 113 235 241 235
c120 0 238 -85 238 -208c0 -102 -61 -157 -117 -208c-59 -53 -132 -116 -132 -116h211z" />
    <glyph glyph-name="three" unicode="3" horiz-adv-x="562" 
d="M365 385c70 -16 152 -79 152 -182c0 -144 -114 -217 -249 -218c-126 0 -240 82 -240 189c0 26 6 30 28 30h89c17 0 21 -5 25 -22c15 -48 71 -59 104 -59c42 0 94 25 94 79c0 53 -37 79 -106 79h-45c-23 0 -27 6 -27 29v64c0 15 4 25 12 34l105 110h-217
c-23 0 -29 12 -29 29v81c0 18 6 29 29 29h382c23 0 29 -11 29 -29v-81c0 -13 -3 -19 -11 -29z" />
    <glyph glyph-name="four" unicode="4" horiz-adv-x="614" 
d="M546 269c23 0 29 -11 29 -29v-82c0 -18 -6 -29 -29 -29h-60v-100c0 -23 -11 -29 -29 -29h-94c-18 0 -29 6 -29 29v100h-279c-23 0 -29 11 -29 29v82c0 13 5 21 15 35l287 366c6 7 16 18 30 18h99c18 0 29 -6 29 -29v-361h60zM334 269v188l-144 -188h144z" />
    <glyph glyph-name="five" unicode="5" horiz-adv-x="561" 
d="M290 425c127 0 222 -89 222 -219c0 -144 -125 -221 -247 -221c-127 0 -237 83 -237 190c0 25 5 29 27 29h90c16 0 21 -2 24 -19c12 -40 52 -61 96 -61c65 0 101 38 101 92c0 48 -43 90 -99 90c-49 0 -72 -16 -100 -37c-6 -4 -12 -4 -22 -4h-82c-21 0 -27 4 -27 30l25 333
c1 18 6 29 28 29h355c23 0 29 -11 29 -29v-82c0 -18 -6 -29 -29 -29h-248l-9 -117c19 12 61 25 103 25z" />
    <glyph glyph-name="six" unicode="6" horiz-adv-x="593" 
d="M39 216c0 30 4 57 16 94c15 44 40 85 66 125l124 194c12 20 26 28 48 28h127c18 0 23 -18 13 -31l-134 -188c12 2 24 4 36 4c115 0 217 -92 217 -212c0 -135 -114 -245 -255 -245c-124 0 -258 87 -258 231zM191 223c0 -56 46 -101 103 -101s104 45 104 101
s-47 100 -104 100s-103 -44 -103 -100z" />
    <glyph glyph-name="seven" unicode="7" horiz-adv-x="539" 
d="M476 657c23 0 29 -11 29 -29v-78c0 -23 -11 -41 -11 -41l-233 -479c-10 -21 -19 -30 -40 -30h-127c-16 0 -21 12 -11 30l252 486h-245c-23 0 -29 11 -29 29v83c0 18 6 29 29 29h386z" />
    <glyph glyph-name="eight" unicode="8" horiz-adv-x="585" 
d="M545 189c0 -113 -87 -203 -255 -203c-169 0 -256 90 -256 203c0 71 40 122 110 159c-53 32 -87 84 -87 140c0 98 78 183 233 183c154 0 232 -85 232 -183c0 -56 -34 -108 -87 -140c71 -37 110 -88 110 -159zM385 198c0 45 -43 80 -95 80c-53 0 -95 -35 -95 -80
s42 -80 95 -80c52 0 95 35 95 80zM213 483c0 -24 19 -68 77 -68c57 0 77 44 77 68c0 40 -35 71 -77 71c-43 0 -77 -31 -77 -71z" />
    <glyph glyph-name="nine" unicode="9" horiz-adv-x="591" 
d="M552 441c0 -30 -4 -57 -16 -94c-15 -44 -40 -85 -66 -125l-124 -194c-12 -20 -26 -28 -48 -28h-127c-18 0 -23 18 -13 31l134 188c-12 -2 -24 -4 -36 -4c-115 0 -217 92 -217 212c0 135 114 245 255 245c124 0 258 -87 258 -231zM400 434c0 56 -46 101 -103 101
s-104 -45 -104 -101s47 -100 104 -100s103 44 103 100z" />
    <glyph glyph-name="colon" unicode=":" horiz-adv-x="306" 
d="M220 169c18 0 29 -6 29 -29v-111c0 -23 -11 -29 -29 -29h-111c-18 0 -29 6 -29 29v111c0 23 11 29 29 29h111zM220 445c18 0 29 -6 29 -29v-111c0 -23 -11 -29 -29 -29h-111c-18 0 -29 6 -29 29v111c0 23 11 29 29 29h111z" />
    <glyph glyph-name="semicolon" unicode=";" horiz-adv-x="309" 
d="M221 445c25 0 31 -6 31 -34v-103c0 -27 -6 -32 -31 -32h-107c-25 0 -31 5 -31 32v103c0 28 6 34 31 34h107zM223 169c18 0 29 -6 29 -29v-91c0 -22 -1 -30 -7 -46l-57 -116c-7 -12 -14 -18 -27 -18h-64c-13 0 -17 14 -9 27l54 104h-30c-18 0 -29 6 -29 29v111
c0 23 11 29 29 29h111z" />
    <glyph glyph-name="less" unicode="&#x3c;" horiz-adv-x="566" 
d="M75 314l406 160c12 5 32 8 32 -16v-90c0 -26 -18 -31 -30 -36l-255 -93l255 -93c12 -5 30 -10 30 -36v-89c0 -24 -20 -22 -32 -17l-406 160c-15 6 -22 18 -22 41v68c0 23 7 35 22 41z" />
    <glyph glyph-name="equal" unicode="=" horiz-adv-x="561" 
d="M482 271c18 0 29 -6 29 -29v-78c0 -23 -11 -29 -29 -29h-404c-18 0 -29 6 -29 29v78c0 23 11 29 29 29h404zM482 507c18 0 29 -6 29 -29v-78c0 -23 -11 -29 -29 -29h-404c-18 0 -29 6 -29 29v78c0 23 11 29 29 29h404z" />
    <glyph glyph-name="greater" unicode="&#x3e;" horiz-adv-x="566" 
d="M85 474l406 -160c15 -6 22 -18 22 -41v-68c0 -23 -7 -35 -22 -41l-406 -160c-12 -5 -32 -7 -32 17v89c0 26 18 31 30 36l255 93l-255 93c-12 5 -30 10 -30 36v90c0 24 20 21 32 16z" />
    <glyph glyph-name="question" unicode="?" horiz-adv-x="546" 
d="M516 489c0 -70 -49 -109 -87 -136c-35 -24 -77 -53 -77 -110c0 -24 -6 -32 -32 -32h-83c-26 0 -32 12 -32 32c0 71 17 110 53 147c35 36 97 47 97 93c0 32 -32 55 -69 55c-51 0 -78 -36 -85 -63v0c-3 -16 -7 -31 -31 -31h-100c-16 0 -17 9 -17 31c8 79 60 197 232 197
c118 0 231 -57 231 -183zM331 169c18 0 29 -6 29 -29v-111c0 -23 -11 -29 -29 -29h-111c-18 0 -29 6 -29 29v111c0 23 11 29 29 29h111z" />
    <glyph glyph-name="J" unicode="J" horiz-adv-x="580" 
d="M484 674c23 0 29 -11 29 -29v-430c0 -156 -129 -215 -248 -215c-133 0 -235 75 -235 216c0 5 1 27 24 27h106c23 0 25 -16 25 -21c3 -59 35 -83 80 -83c66 0 91 36 91 98v296h-175c-24 0 -29 11 -29 29v83c0 18 5 29 29 29h303z" />
    <glyph glyph-name="exclam" unicode="!" horiz-adv-x="322" 
d="M141 207c-24 0 -26 4 -29 29c-42 395 -43 398 -43 401c0 17 9 21 29 21h134c21 0 30 -3 30 -21c0 -3 -1 -6 -44 -401c-3 -26 -5 -29 -28 -29h-49zM221 169c18 0 29 -6 29 -29v-111c0 -23 -11 -29 -29 -29h-111c-18 0 -29 6 -29 29v111c0 23 11 29 29 29h111z" />
    <glyph glyph-name="quotedbl" unicode="&#x22;" horiz-adv-x="443" 
d="M155 658c23 0 29 -11 29 -29v-226c0 -18 -6 -29 -29 -29h-69c-24 0 -29 11 -29 29v226c0 18 5 29 29 29h69zM357 658c22 0 28 -11 28 -29v-226c0 -18 -6 -29 -28 -29h-70c-22 0 -28 11 -28 29v226c0 18 6 29 28 29h70z" />
    <glyph glyph-name="numbersign" unicode="#" horiz-adv-x="658" 
d="M591 483c22 0 20 -14 18 -27c0 -1 -7 -58 -7 -58c-3 -17 -12 -24 -26 -24h-58v0l-6 -45l-6 -45h58c22 0 20 -14 18 -27c0 -1 -7 -58 -7 -58c-3 -17 -12 -24 -26 -24h-58l-22 -147c-2 -21 -16 -28 -30 -28h-73c-23 0 -22 18 -20 32l22 143h-118l-22 -147
c-2 -21 -16 -28 -30 -28h-73c-23 0 -22 18 -21 32l22 143h-58c-21 0 -20 14 -18 28c0 1 8 57 8 57c2 18 11 24 25 24h58v0l12 90h-58c-21 0 -20 14 -18 28c0 1 8 57 8 57c2 18 11 24 25 24h58l22 148c2 21 16 27 30 27h73c23 0 22 -18 21 -32l-22 -143h118l22 148
c2 21 15 27 29 27h74c23 0 22 -18 20 -32l-22 -143h58zM383 284l11 90h-117l-12 -90h118z" />
    <glyph glyph-name="percent" unicode="%" horiz-adv-x="890" 
d="M690 369c78 0 145 -52 145 -132v-88c0 -81 -67 -133 -145 -133s-145 52 -145 133v88c0 80 67 132 145 132zM729 152v82c0 21 -16 44 -39 44s-38 -23 -38 -44v-82c0 -21 15 -44 38 -44s39 23 39 44zM660 698c18 0 21 -14 16 -26l-351 -642c-7 -13 -17 -30 -37 -30h-58
c-18 0 -21 14 -16 26l352 642c6 13 16 30 36 30h58zM345 460c0 -80 -67 -132 -145 -132s-145 52 -145 132v88c0 81 67 133 145 133s145 -52 145 -133v-88zM238 463v82c0 21 -15 44 -38 44s-39 -23 -39 -44v-82c0 -21 16 -44 39 -44s38 23 38 44z" />
    <glyph glyph-name="ampersand" unicode="&#x26;" horiz-adv-x="721" 
d="M715 33c12 -13 2 -33 -16 -33h-111c-20 0 -29 7 -43 20l-51 49c-52 -55 -121 -83 -198 -84c-144 0 -247 82 -247 217c0 102 82 167 152 183l-129 138c-6 8 -7 14 -7 20v86c0 18 6 29 29 29h31v0h351c23 0 29 -11 29 -29v-81c0 -18 -6 -29 -29 -29h-207l204 -222
c19 32 34 52 39 60c6 9 13 17 29 17h111c20 0 20 -15 14 -28l-92 -158zM293 123c29 0 78 14 106 49l-101 109c-65 -2 -100 -29 -100 -80c0 -54 52 -78 95 -78z" />
    <glyph glyph-name="quotesingle" unicode="'" horiz-adv-x="241" 
d="M155 658c22 0 28 -11 28 -29v-226c0 -18 -6 -29 -28 -29h-70c-22 0 -28 11 -28 29v226c0 18 6 29 28 29h70z" />
    <glyph glyph-name="parenleft" unicode="(" horiz-adv-x="357" 
d="M216 261c1 -138 25 -255 87 -387c5 -11 1 -25 -14 -25h-107c-15 0 -23 11 -27 20c-60 127 -89 255 -89 392c0 138 29 266 89 393c4 9 12 20 27 20h107c15 0 19 -14 14 -25c-62 -132 -86 -249 -87 -388z" />
    <glyph glyph-name="asterisk" unicode="*" horiz-adv-x="491" 
d="M434 502c7 -22 -1 -31 -18 -36l-98 -27l63 -80c11 -14 12 -27 -6 -40l-36 -26c-19 -14 -30 -8 -41 6l-56 85l-56 -85c-10 -14 -21 -20 -40 -6l-36 26c-18 13 -17 26 -6 40l63 80l-98 27c-17 5 -25 14 -18 36l13 42c7 22 20 24 37 19l95 -36l-5 102c0 18 6 29 29 29h44
c23 0 29 -11 29 -29l-4 -102l95 36c17 5 30 3 37 -19z" />
    <glyph glyph-name="plus" unicode="+" horiz-adv-x="556" 
d="M483 383c18 0 29 -6 29 -29v-78c0 -23 -11 -29 -29 -29h-134v-134c0 -18 -6 -29 -29 -29h-78c-23 0 -29 11 -29 29v134h-135c-18 0 -29 6 -29 29v78c0 23 11 29 29 29h135v134c0 18 6 29 29 29h78c23 0 29 -11 29 -29v-134h134z" />
    <glyph glyph-name="comma" unicode="," horiz-adv-x="301" 
d="M206 169c18 0 29 -6 29 -29v-90c0 -22 -1 -31 -7 -47l-57 -116c-7 -12 -14 -18 -27 -18h-64c-13 0 -17 15 -10 28l55 103h-30c-18 0 -29 6 -29 29v111c0 23 11 29 29 29h111z" />
    <glyph glyph-name="hyphen" unicode="-" horiz-adv-x="434" 
d="M353 335c18 0 29 -6 29 -29v-78c0 -23 -11 -29 -29 -29h-272c-18 0 -29 6 -29 29v78c0 23 11 29 29 29h272z" />
    <glyph glyph-name="period" unicode="." horiz-adv-x="283" 
d="M197 169c18 0 29 -6 29 -29v-111c0 -23 -11 -29 -29 -29h-111c-18 0 -29 6 -29 29v111c0 23 11 29 29 29h111z" />
    <glyph glyph-name="slash" unicode="/" horiz-adv-x="401" 
d="M284 693h85c25 0 26 -18 23 -28l-239 -638c-5 -12 -12 -27 -31 -27h-86c-25 0 -26 18 -23 28l240 638c5 12 12 27 31 27z" />
    <glyph glyph-name="K" unicode="K" horiz-adv-x="654" 
d="M622 658c19 0 19 -19 10 -28l-225 -244l215 -354c8 -13 4 -32 -15 -32h-122c-24 0 -37 11 -50 32c0 0 -89 150 -143 240l-62 -65v-178c0 -23 -11 -29 -28 -29h-99c-19 0 -29 6 -29 29v600c0 23 10 29 29 29h99c17 0 28 -6 28 -29v-223l207 228c20 22 27 24 50 24h135z
" />
    <glyph glyph-name="L" unicode="L" horiz-adv-x="582" 
d="M519 140c23 0 29 -11 29 -29v-82c0 -18 -6 -29 -29 -29h-416c-23 0 -29 11 -29 29v600c0 23 11 29 29 29h99c18 0 29 -6 29 -29v-489h288z" />
    <glyph glyph-name="M" unicode="M" horiz-adv-x="767" 
d="M664 659c23 0 29 -11 29 -29v-601c0 -23 -11 -29 -29 -29h-96c-18 0 -29 6 -29 29v339l-100 -175c-5 -8 -14 -21 -29 -21h-50c-15 0 -23 13 -28 21l-101 175v-339c0 -23 -11 -29 -29 -29h-99c-18 0 -29 6 -29 29v601c0 18 6 29 29 29h99c34 0 38 -22 46 -34l137 -246
l138 246c7 12 12 34 45 34h96z" />
    <glyph glyph-name="N" unicode="N" horiz-adv-x="682" 
d="M579 658c18 0 29 -6 29 -29v-600c0 -18 -6 -29 -29 -29h-91c-25 0 -32 14 -45 34l-212 343v-348c0 -23 -11 -29 -29 -29h-99c-18 0 -29 6 -29 29v600c0 18 6 29 29 29h94c25 0 32 -14 45 -34l212 -342v347c0 23 11 29 29 29h96z" />
    <glyph glyph-name="O" unicode="O" horiz-adv-x="645" 
d="M591 447v-236c0 -158 -150 -226 -269 -226s-267 68 -267 226v236c0 158 148 226 267 226s269 -68 269 -226zM434 225v208c0 64 -46 101 -112 101c-65 0 -111 -37 -111 -101v-208c0 -64 46 -101 111 -101c66 0 112 37 112 101z" />
    <glyph glyph-name="P" unicode="P" horiz-adv-x="628" 
d="M328 658c172 0 262 -94 262 -232c0 -139 -92 -231 -263 -231h-96v-166c0 -23 -11 -29 -29 -29h-99c-18 0 -29 6 -29 29v600c0 18 6 29 29 29h225zM327 330c78 0 112 43 112 93c0 52 -34 94 -112 94h-96v-187h96z" />
    <glyph glyph-name="Q" unicode="Q" horiz-adv-x="646" 
d="M593 47c13 -12 13 -29 -4 -46l-48 -39c-16 -16 -32 -18 -45 -5l-48 49c-42 -18 -84 -22 -127 -22c-119 0 -267 68 -267 226v236c0 158 148 226 267 226s269 -68 269 -226v-236c0 -51 -9 -87 -35 -120zM434 225v208c0 64 -46 101 -112 101c-65 0 -111 -37 -111 -101v-208
c0 -64 46 -101 111 -101c66 0 112 37 112 101z" />
    <glyph glyph-name="R" unicode="R" horiz-adv-x="666" 
d="M613 32c9 -14 4 -32 -15 -32h-118c-24 0 -36 9 -50 30l-108 161c-9 12 -11 23 -11 51v80c0 18 6 29 29 29h20c49 0 95 34 95 81c0 52 -40 85 -92 85h-133v-488c0 -23 -11 -29 -29 -29h-99c-18 0 -28 6 -28 29v599c0 18 5 29 28 29h252c109 0 157 -22 199 -64
c37 -36 58 -93 58 -157c0 -105 -77 -178 -139 -199z" />
    <glyph glyph-name="S" unicode="S" horiz-adv-x="605" 
d="M384 382c72 -22 178 -51 178 -187c0 -142 -112 -210 -266 -210c-125 0 -269 72 -269 212c0 23 6 28 29 28h97c23 0 34 -3 36 -28c1 -13 6 -26 19 -41c20 -24 61 -33 98 -33c54 0 98 12 98 68s-89 57 -174 84c-101 32 -194 72 -194 199c0 130 118 194 243 199
c127 0 266 -58 266 -190c0 -24 -6 -28 -29 -28h-98c-19 0 -22 14 -27 27c-4 10 -9 18 -21 30c-19 18 -55 27 -85 27c-33 0 -88 -13 -88 -58c0 -61 147 -83 187 -99z" />
    <glyph glyph-name="T" unicode="T" horiz-adv-x="574" 
d="M519 658c23 0 29 -11 29 -29v-83c0 -18 -6 -29 -29 -29h-153v-488c0 -23 -11 -29 -29 -29h-99c-18 0 -29 6 -29 29v488h-154c-23 0 -29 11 -29 29v83c0 18 6 29 29 29h464z" />
    <glyph glyph-name="U" unicode="U" horiz-adv-x="661" 
d="M566 658c18 0 29 -6 29 -29v-428c0 -157 -146 -216 -265 -216s-264 59 -264 216v428c0 23 11 29 29 29h99c18 0 29 -6 29 -29v-406c0 -63 41 -99 107 -99s108 36 108 99v406c0 23 11 29 29 29h99z" />
    <glyph glyph-name="V" unicode="V" horiz-adv-x="636" 
d="M599 658c19 0 23 -16 18 -29l-214 -599c-12 -26 -19 -30 -41 -30h-96c-22 0 -29 4 -41 30l-215 599c-5 13 -1 29 18 29h111c26 0 33 -8 41 -32l136 -414l135 414c8 24 15 32 42 32h106z" />
    <glyph glyph-name="W" unicode="W" horiz-adv-x="898" 
d="M859 658c18 0 21 -17 17 -29l-184 -608s-5 -21 -27 -21h-84c-26 0 -32 23 -32 23l-100 319l-100 -319s-6 -23 -32 -23h-88c-22 0 -27 21 -27 21l-185 608c-3 12 0 29 18 29h110c30 0 36 -20 40 -32l99 -340l96 340c4 14 11 32 34 32h70c22 0 29 -18 33 -32l97 -340
l99 340c3 12 10 32 40 32h106z" />
    <glyph glyph-name="X" unicode="X" horiz-adv-x="586" 
d="M386 337l177 -306c8 -12 3 -31 -12 -31h-114c-22 0 -30 2 -44 28l-99 178l-100 -178c-13 -26 -22 -28 -44 -28h-114c-15 0 -20 19 -12 31l178 306l-181 293c-6 11 -2 28 15 28h118c19 0 27 -8 40 -29l100 -161l99 161c14 21 21 29 41 29h117c17 0 22 -17 15 -28z" />
    <glyph glyph-name="Y" unicode="Y" horiz-adv-x="604" 
d="M575 658c19 0 21 -17 16 -28l-206 -383v-218c0 -23 -11 -29 -29 -29h-100c-19 0 -29 6 -29 29v218l-214 383c-5 11 -3 28 16 28h115c23 0 33 -3 47 -30l117 -215l113 215c13 27 23 30 46 30h108z" />
    <glyph glyph-name="Z" unicode="Z" horiz-adv-x="567" 
d="M502 140c23 0 29 -11 29 -29v-82c0 -18 -6 -29 -29 -29h-436c-26 0 -30 5 -30 29v78c0 23 13 38 13 38l270 373h-245c-23 0 -29 11 -29 29v82c0 18 6 29 29 29h402c23 0 29 -11 29 -29v-78c0 -13 -3 -26 -13 -39l-268 -372h278z" />
    <glyph glyph-name="bracketleft" unicode="[" horiz-adv-x="414" 
d="M227 533v-549h118c23 0 29 -11 29 -29v-82c0 -18 -6 -29 -29 -29h-242c-23 0 -29 11 -29 29v771c0 18 6 29 29 29h242c23 0 29 -11 29 -29v-82c0 -18 -6 -29 -29 -29h-118z" />
    <glyph glyph-name="bar" unicode="|" horiz-adv-x="337" 
d="M208 792c18 0 29 -6 29 -29v-900c0 -23 -11 -29 -29 -29h-79c-18 0 -29 6 -29 29v900c0 23 11 29 29 29h79z" />
    <glyph glyph-name="guillemotleft" unicode="&#xab;" horiz-adv-x="473" 
d="M179 485c10 10 26 4 26 -12v-88c0 -16 -11 -27 -21 -35l-62 -51l62 -51c10 -8 21 -18 21 -34v-89c0 -15 -16 -21 -26 -11l-137 119c-8 7 -12 18 -12 27v78c0 10 4 20 12 27zM413 385c0 -16 -11 -27 -21 -35l-62 -51l62 -51c10 -8 21 -18 21 -34v-89
c0 -15 -16 -21 -26 -11l-137 119c-8 7 -12 18 -12 27v78c0 10 4 20 12 27l137 120c10 10 26 4 26 -12v-88z" />
    <glyph glyph-name="yen" unicode="&#xa5;" horiz-adv-x="594" 
d="M567 658c19 0 22 -17 16 -28l-115 -215h41c18 0 29 -6 29 -29v-53c0 -23 -11 -29 -29 -29h-101l-31 -57v-2h132c18 0 29 -6 29 -29v-53c0 -23 -11 -29 -29 -29h-132v-105c0 -23 -11 -29 -29 -29h-100c-18 0 -29 6 -29 29v105h-139c-18 0 -29 6 -29 29v53
c0 23 11 29 29 29h139v2l-32 57h-107c-18 0 -29 6 -29 29v53c0 23 11 29 29 29h45l-120 215c-5 11 -3 28 16 28h116c23 0 32 -3 46 -30l116 -213h2l112 213c14 27 23 30 46 30h108z" />
    <glyph glyph-name="currency" unicode="&#xa4;" horiz-adv-x="674" 
d="M519 494c16 16 28 13 41 0l33 -33c13 -13 16 -25 0 -41l-40 -41c49 -77 48 -176 -1 -254l41 -41c16 -16 13 -28 0 -41l-32 -32c-13 -13 -25 -16 -41 0l-41 41c-78 -49 -176 -49 -254 -1l-41 -40c-16 -16 -28 -13 -41 0l-33 33c-13 13 -16 25 0 41l40 40
c-48 78 -48 177 1 254l-40 41c-16 16 -13 28 0 41l32 32c13 13 25 16 41 0l41 -40c77 49 176 49 254 1zM429 175c43 42 43 112 0 154c-43 43 -112 43 -155 1c-42 -43 -42 -112 1 -155c42 -43 112 -43 154 0z" />
    <glyph glyph-name="sterling" unicode="&#xa3;" horiz-adv-x="651" 
d="M582 140c23 0 29 -11 29 -29v-82c0 -17 -6 -29 -29 -29h-519v0c-22 1 -28 12 -28 29v82c0 18 5 29 29 29c28 0 62 8 66 89h-66c-23 0 -29 11 -29 29v78c0 18 6 29 29 29h66v108c0 128 107 200 230 200c118 0 239 -67 239 -223c0 -21 -4 -22 -19 -22h-99
c-22 0 -28 13 -28 22c0 67 -32 83 -88 83c-55 0 -77 -47 -77 -100v-68h130c23 0 29 -11 29 -29v-78c0 -18 -6 -29 -29 -29h-130c0 -49 -16 -75 -33 -89h327z" />
    <glyph glyph-name="germandbls" unicode="&#xdf;" horiz-adv-x="658" 
d="M515 347c8 -3 91 -43 91 -151c0 -127 -99 -194 -238 -194h-25h-31c-23 0 -29 11 -29 29v84c0 18 6 29 29 29h61c49 0 79 22 79 67s-38 63 -81 63h-27c-23 0 -29 11 -29 29v76c0 18 6 29 29 29h15c59 0 83 23 83 62s-31 58 -83 58c-87 0 -129 -37 -129 -129v-485
c0 -23 -11 -29 -29 -29h-98c-18 0 -29 6 -29 29v516c3 152 126 239 280 239c163 0 234 -89 234 -183c0 -101 -63 -135 -73 -139z" />
    <glyph glyph-name="OE" unicode="&#x152;" horiz-adv-x="923" 
d="M848 140c23 0 29 -11 29 -29v-82c0 -18 -6 -29 -29 -29h-536c-118 2 -264 71 -264 227v204c0 156 146 227 264 227h520c22 0 28 -11 28 -29v-82c0 -18 -6 -29 -28 -29h-255v-111h220c23 0 29 -11 29 -29v-78c0 -18 -6 -29 -29 -29h-220v-131h271zM429 135v389h-112
c-66 0 -111 -51 -111 -115v-160c0 -64 45 -114 111 -114h112z" />
    <glyph glyph-name="tilde" unicode="&#x2dc;" horiz-adv-x="476" 
d="M448 658c12 0 12 -14 12 -20v-1c0 -59 -43 -110 -108 -110c-26 0 -59 10 -81 18c0 0 -59 21 -71 23c-13 2 -29 -3 -35 -23c-3 -10 -7 -18 -25 -18h-46c-12 0 -12 14 -12 20v1c0 59 43 110 108 110c26 0 59 -10 81 -18c0 0 59 -21 71 -23c13 -2 29 3 35 23
c3 10 7 18 25 18h46z" />
    <glyph glyph-name="divide" unicode="&#xf7;" horiz-adv-x="556" 
d="M275 567c50 0 90 -40 90 -90s-40 -90 -90 -90s-91 40 -91 90s41 90 91 90zM275 166c50 0 90 -40 90 -90s-40 -91 -90 -91s-91 41 -91 91s41 90 91 90zM477 345c18 0 29 -6 29 -29v-78c0 -23 -11 -29 -29 -29h-405c-18 0 -29 6 -29 29v78c0 23 11 29 29 29h405z" />
    <glyph glyph-name="asciicircum" unicode="^" horiz-adv-x="536" 
d="M475 342c2 -4 3 -8 3 -11c0 -9 -7 -14 -18 -14h-94c-26 0 -26 12 -32 24l-66 144l-66 -144c-6 -12 -7 -24 -33 -24h-93c-11 0 -19 6 -19 15c0 3 1 6 3 10l142 298c7 15 14 18 23 18h86c9 0 16 -3 22 -18z" />
    <glyph glyph-name="circumflex" unicode="&#x2c6;" horiz-adv-x="500" 
d="M333 483c-16 0 -26 11 -34 21l-51 62l-51 -62c-8 -10 -19 -21 -35 -21h-88c-16 0 -22 16 -12 26l120 137c7 8 17 12 27 12h78c9 0 20 -4 27 -12l119 -137c10 -10 4 -26 -11 -26h-89z" />
    <glyph glyph-name="emdash" unicode="&#x2014;" horiz-adv-x="765" 
d="M687 344c18 0 29 -6 29 -29v-78c0 -23 -11 -29 -29 -29h-609c-18 0 -29 6 -29 29v78c0 23 11 29 29 29h609z" />
    <glyph glyph-name="dieresis" unicode="&#xa8;" horiz-adv-x="556" 
d="M209 658c17 0 29 -6 29 -29v-65c0 -23 -12 -29 -29 -29h-110c-19 0 -29 6 -29 29v65c0 23 10 29 29 29h110zM456 658c18 0 29 -6 29 -29v-65c0 -23 -11 -29 -29 -29h-110c-18 0 -29 6 -29 29v65c0 23 11 29 29 29h110z" />
    <glyph glyph-name="multiply" unicode="&#xd7;" horiz-adv-x="538" 
d="M484 196c13 -13 17 -25 0 -41l-55 -56c-16 -16 -28 -12 -41 0l-119 120l-120 -120c-12 -12 -24 -16 -41 0l-55 56c-16 16 -12 28 0 41l120 119l-120 119c-12 13 -16 25 0 41l55 56c17 16 29 12 41 0l120 -120l119 120c13 12 25 16 41 0l55 -56c17 -16 13 -28 0 -41
l-119 -119z" />
    <glyph glyph-name="Euro" unicode="&#x20ac;" horiz-adv-x="687" 
d="M615 228c22 0 30 -10 30 -34c0 -129 -136 -209 -260 -209c-119 0 -268 68 -268 225v4h-53c-18 0 -29 6 -29 29v36c0 23 11 29 29 29h53v48h-53c-18 0 -29 6 -29 29v36c0 23 11 29 29 29h53c3 154 150 222 268 222c124 0 247 -63 260 -190c0 -24 -8 -29 -31 -29h-96
c-21 0 -22 19 -30 31c-21 33 -49 48 -103 48c-59 0 -102 -30 -109 -82h131c17 0 29 -6 29 -29v-36c0 -23 -12 -29 -29 -29h-133v-48h133c17 0 29 -6 29 -29v-36c0 -23 -12 -29 -29 -29h-132c4 -57 48 -90 110 -90c54 0 97 20 105 68c3 20 5 36 27 36h98z" />
    <glyph glyph-name="parenright" unicode=")" horiz-adv-x="357" 
d="M141 261c-1 139 -25 256 -87 388c-5 11 -1 25 14 25h107c15 0 23 -11 27 -20c60 -127 89 -255 89 -393c0 -137 -29 -265 -89 -392c-4 -9 -12 -20 -27 -20h-107c-15 0 -19 14 -14 25c62 132 86 249 87 387z" />
    <glyph glyph-name="bracketright" unicode="]" horiz-adv-x="414" 
d="M187 -16v549h-118c-23 0 -29 11 -29 29v82c0 18 6 29 29 29h242c23 0 29 -11 29 -29v-771c0 -18 -6 -29 -29 -29h-242c-23 0 -29 11 -29 29v82c0 18 6 29 29 29h118z" />
    <glyph glyph-name="backslash" unicode="\" horiz-adv-x="401" 
d="M33 693h85c19 0 26 -15 31 -27l240 -638c3 -10 2 -28 -23 -28h-86c-19 0 -26 15 -31 27l-239 638c-3 10 -2 28 23 28z" />
    <glyph glyph-name="grave" unicode="`" horiz-adv-x="556" 
d="M346 494h-98c-25 0 -33 14 -47 28l-100 108c-9 9 -6 28 19 28h127c22 0 30 -3 45 -28l67 -108c6 -9 6 -28 -13 -28z" />
    <glyph glyph-name="endash" unicode="&#x2013;" horiz-adv-x="569" 
d="M491 344c18 0 29 -6 29 -29v-78c0 -23 -11 -29 -29 -29h-413c-18 0 -29 6 -29 29v78c0 23 11 29 29 29h413z" />
    <glyph glyph-name="quotesinglbase" unicode="&#x201a;" horiz-adv-x="301" 
d="M206 169c18 0 29 -6 29 -29v-90c0 -22 -1 -31 -7 -47l-57 -116c-7 -12 -14 -18 -27 -18h-64c-13 0 -17 15 -10 28l55 103h-30c-18 0 -29 6 -29 29v111c0 23 11 29 29 29h111z" />
    <glyph glyph-name="quotedblbase" unicode="&#x201e;" horiz-adv-x="546" 
d="M451 169c18 0 29 -6 29 -29v-90c0 -22 -1 -31 -7 -47l-57 -116c-7 -12 -14 -18 -27 -18h-64c-13 0 -17 15 -9 28l54 103h-30c-18 0 -29 6 -29 29v111c0 23 11 29 29 29h111zM206 169c18 0 29 -6 29 -29v-90c0 -22 -1 -31 -7 -47l-57 -116c-7 -12 -14 -18 -27 -18h-64
c-13 0 -17 15 -10 28l55 103h-30c-18 0 -29 6 -29 29v111c0 23 11 29 29 29h111z" />
    <glyph glyph-name="quotedblleft" unicode="&#x201c;" horiz-adv-x="546" 
d="M206 358h-111c-18 0 -29 6 -29 29v90c0 22 1 31 7 47l57 116c7 12 14 18 27 18h64c13 0 17 -15 9 -28l-54 -103h30c18 0 29 -6 29 -29v-111c0 -23 -11 -29 -29 -29zM451 358h-111c-18 0 -29 6 -29 29v90c0 22 1 31 7 47l57 116c7 12 14 18 27 18h64c13 0 17 -15 10 -28
l-55 -103h30c18 0 29 -6 29 -29v-111c0 -23 -11 -29 -29 -29z" />
    <glyph glyph-name="quotedblright" unicode="&#x201d;" horiz-adv-x="546" 
d="M340 658h111c18 0 29 -6 29 -29v-90c0 -22 -1 -31 -7 -47l-57 -116c-7 -12 -14 -18 -27 -18h-64c-13 0 -17 15 -9 28l54 103h-30c-18 0 -29 6 -29 29v111c0 23 11 29 29 29zM95 658h111c18 0 29 -6 29 -29v-90c0 -22 -1 -31 -7 -47l-57 -116c-7 -12 -14 -18 -27 -18h-64
c-13 0 -17 15 -10 28l55 103h-30c-18 0 -29 6 -29 29v111c0 23 11 29 29 29z" />
    <glyph glyph-name="quoteright" unicode="&#x2019;" horiz-adv-x="305" 
d="M239 626v-97c0 -13 -2 -24 -7 -37l-57 -116c-7 -12 -14 -18 -27 -18h-73c-5 0 -9 3 -9 8c0 2 1 6 3 9l60 114h-28c-25 0 -31 5 -31 32v105c0 27 6 32 31 32h107c25 0 31 -5 31 -32z" />
    <glyph glyph-name="quoteleft" unicode="&#x2018;" horiz-adv-x="301" 
d="M206 361h-111c-18 0 -29 6 -29 29v90c0 22 1 31 7 47l57 116c7 12 14 18 27 18h64c13 0 17 -15 10 -28l-55 -103h30c18 0 29 -6 29 -29v-111c0 -23 -11 -29 -29 -29z" />
    <glyph glyph-name="brokenbar" unicode="&#xa6;" horiz-adv-x="337" 
d="M208 612c18 0 29 -6 29 -29v-210c0 -23 -11 -29 -29 -29h-79c-18 0 -29 6 -29 29v210c0 23 11 29 29 29h79zM208 155c18 0 29 -6 29 -29v-210c0 -23 -11 -29 -29 -29h-79c-18 0 -29 6 -29 29v210c0 23 11 29 29 29h79z" />
    <glyph glyph-name="underscore" unicode="_" horiz-adv-x="590" 
d="M561 -88c18 0 29 -6 29 -29v-31c0 -23 -11 -29 -29 -29h-532c-18 0 -29 6 -29 29v31c0 23 11 29 29 29h532z" />
    <glyph glyph-name="Agrave" unicode="&#xc0;" 
d="M640 28c5 -12 5 -28 -17 -28h-105c-22 0 -30 6 -38 30l-28 79h-245l-28 -79c-8 -24 -16 -30 -38 -30h-105c-22 0 -22 16 -17 28l222 599c8 21 19 31 41 31h96c22 0 32 -10 41 -31zM255 249h150l-75 221zM373 716h-98c-25 0 -33 14 -47 28l-100 108c-9 9 -6 28 19 28h127
c22 0 30 -3 45 -28l67 -108c6 -9 6 -28 -13 -28z" />
    <glyph glyph-name="acute" unicode="&#xb4;" horiz-adv-x="556" 
d="M318 494h-98c-19 0 -19 19 -13 28l67 108c15 25 23 28 45 28h127c25 0 28 -19 19 -28l-100 -108c-14 -14 -22 -28 -47 -28z" />
    <glyph glyph-name="Aacute" unicode="&#xc1;" 
d="M640 28c5 -12 5 -28 -17 -28h-105c-22 0 -30 6 -38 30l-28 79h-245l-28 -79c-8 -24 -16 -30 -38 -30h-105c-22 0 -22 16 -17 28l222 599c8 21 19 31 41 31h96c22 0 32 -10 41 -31zM255 249h150l-75 221zM382 716h-98c-19 0 -19 19 -13 28l67 108c15 25 23 28 45 28h127
c25 0 28 -19 19 -28l-100 -108c-14 -14 -22 -28 -47 -28z" />
    <glyph glyph-name="Acircumflex" unicode="&#xc2;" 
d="M640 28c5 -12 5 -28 -17 -28h-105c-22 0 -30 6 -38 30l-28 79h-245l-28 -79c-8 -24 -16 -30 -38 -30h-105c-22 0 -22 16 -17 28l222 599c8 21 19 31 41 31h96c22 0 32 -10 41 -31zM255 249h150l-75 221zM416 716c-16 0 -26 11 -34 21l-51 62l-51 -62
c-8 -10 -19 -21 -35 -21h-88c-16 0 -22 16 -12 26l120 137c7 8 17 12 27 12h78c9 0 20 -4 27 -12l119 -137c10 -10 4 -26 -11 -26h-89z" />
    <glyph glyph-name="Atilde" unicode="&#xc3;" 
d="M640 28c5 -12 5 -28 -17 -28h-105c-22 0 -30 6 -38 30l-28 79h-245l-28 -79c-8 -24 -16 -30 -38 -30h-105c-22 0 -22 16 -17 28l222 599c8 21 19 31 41 31h96c22 0 32 -10 41 -31zM255 249h150l-75 221zM512 847c12 0 12 -14 12 -20v-1c0 -59 -43 -110 -108 -110
c-26 0 -59 10 -81 18c0 0 -59 21 -71 23c-13 2 -29 -3 -35 -23c-3 -10 -7 -18 -25 -18h-46c-12 0 -12 14 -12 20v1c0 59 43 110 108 110c26 0 59 -10 81 -18c0 0 59 -21 71 -23c13 -2 29 3 35 23c3 10 7 18 25 18h46z" />
    <glyph glyph-name="Adieresis" unicode="&#xc4;" 
d="M258 839c17 0 29 -6 29 -29v-65c0 -23 -12 -29 -29 -29h-110c-19 0 -29 6 -29 29v65c0 23 10 29 29 29h110zM505 839c18 0 29 -6 29 -29v-65c0 -23 -11 -29 -29 -29h-110c-18 0 -29 6 -29 29v65c0 23 11 29 29 29h110zM640 28c5 -12 5 -28 -17 -28h-105
c-22 0 -30 6 -38 30l-28 79h-245l-28 -79c-8 -24 -16 -30 -38 -30h-105c-22 0 -22 16 -17 28l222 599c8 21 19 31 41 31h96c22 0 32 -10 41 -31zM255 249h150l-75 221z" />
    <glyph glyph-name="Aring" unicode="&#xc5;" 
d="M275 729c0 -28 25 -53 53 -53s52 26 52 53s-25 52 -52 52s-53 -24 -53 -52zM255 249h150l-75 221zM640 28c5 -12 5 -28 -17 -28h-105c-22 0 -30 6 -38 30l-28 79h-245l-28 -79c-8 -24 -16 -30 -38 -30h-105c-22 0 -22 16 -17 28l222 599c3 8 6 14 10 19
c-22 20 -36 50 -36 83c0 62 52 112 113 112s112 -51 112 -112c0 -31 -13 -61 -34 -81c5 -5 9 -12 13 -21z" />
    <glyph glyph-name="AE" unicode="&#xc6;" horiz-adv-x="970" 
d="M895 140c23 0 29 -11 29 -29v-82c0 -18 -6 -29 -29 -29h-424c-15 0 -29 3 -29 24v85h-212l-38 -79c-11 -20 -22 -30 -45 -30h-117c-14 0 -20 14 -14 28l284 591c12 24 26 40 53 40h525c23 0 29 -11 29 -29v-82c0 -18 -6 -29 -29 -29h-286v-111h252c23 0 29 -11 29 -29
v-78c0 -18 -6 -29 -29 -29h-252v-132h303zM442 250v270h-32l-122 -270h154z" />
    <glyph glyph-name="Egrave" unicode="&#xc8;" horiz-adv-x="627" 
d="M551 140c23 0 29 -11 29 -29v-82c0 -18 -6 -29 -29 -29h-448c-23 0 -29 11 -29 29v600c0 18 6 29 29 29h431c23 0 29 -11 29 -29v-83c0 -18 -6 -29 -29 -29h-302v-109h268c23 0 29 -11 29 -29v-78c0 -18 -6 -29 -29 -29h-268v-132h319zM392 716h-98c-25 0 -33 14 -47 28
l-100 108c-9 9 -6 28 19 28h127c22 0 30 -3 45 -28l67 -108c6 -9 6 -28 -13 -28z" />
    <glyph glyph-name="Eacute" unicode="&#xc9;" horiz-adv-x="627" 
d="M551 140c23 0 29 -11 29 -29v-82c0 -18 -6 -29 -29 -29h-448c-23 0 -29 11 -29 29v600c0 18 6 29 29 29h431c23 0 29 -11 29 -29v-83c0 -18 -6 -29 -29 -29h-302v-109h268c23 0 29 -11 29 -29v-78c0 -18 -6 -29 -29 -29h-268v-132h319zM352 716h-98c-19 0 -19 19 -13 28
l67 108c15 25 23 28 45 28h127c25 0 28 -19 19 -28l-100 -108c-14 -14 -22 -28 -47 -28z" />
    <glyph glyph-name="Ecircumflex" unicode="&#xca;" horiz-adv-x="627" 
d="M551 140c23 0 29 -11 29 -29v-82c0 -18 -6 -29 -29 -29h-448c-23 0 -29 11 -29 29v600c0 18 6 29 29 29h431c23 0 29 -11 29 -29v-83c0 -18 -6 -29 -29 -29h-302v-109h268c23 0 29 -11 29 -29v-78c0 -18 -6 -29 -29 -29h-268v-132h319zM412 716c-16 0 -26 11 -34 21
l-51 62l-51 -62c-8 -10 -19 -21 -35 -21h-88c-16 0 -22 16 -12 26l120 137c7 8 17 12 27 12h78c9 0 20 -4 27 -12l119 -137c10 -10 4 -26 -11 -26h-89z" />
    <glyph glyph-name="Edieresis" unicode="&#xcb;" horiz-adv-x="627" 
d="M551 140c23 0 29 -11 29 -29v-82c0 -18 -6 -29 -29 -29h-448c-23 0 -29 11 -29 29v600c0 18 6 29 29 29h431c23 0 29 -11 29 -29v-83c0 -18 -6 -29 -29 -29h-302v-109h268c23 0 29 -11 29 -29v-78c0 -18 -6 -29 -29 -29h-268v-132h319zM252 839c17 0 29 -6 29 -29v-65
c0 -23 -12 -29 -29 -29h-110c-19 0 -29 6 -29 29v65c0 23 10 29 29 29h110zM499 839c18 0 29 -6 29 -29v-65c0 -23 -11 -29 -29 -29h-110c-18 0 -29 6 -29 29v65c0 23 11 29 29 29h110z" />
    <glyph glyph-name="Igrave" unicode="&#xcc;" horiz-adv-x="488" 
d="M306 716h-98c-25 0 -33 14 -47 28l-100 108c-9 9 -6 28 19 28h127c22 0 30 -3 45 -28l67 -108c6 -9 6 -28 -13 -28zM403 140c23 0 29 -11 29 -29v-82c0 -18 -6 -29 -29 -29h-311c-23 0 -29 11 -29 29v82c0 18 6 29 29 29h77v378h-61c-23 0 -29 11 -29 29v82
c0 18 6 29 29 29h278c23 0 29 -11 29 -29v-82c0 -18 -6 -29 -29 -29h-60v-378h77z" />
    <glyph glyph-name="Iacute" unicode="&#xcd;" horiz-adv-x="484" 
d="M396 140c23 0 29 -11 29 -29v-82c0 -18 -6 -29 -29 -29h-311c-23 0 -29 11 -29 29v82c0 18 6 29 29 29h77v378h-61c-23 0 -29 11 -29 29v82c0 18 6 29 29 29h278c23 0 29 -11 29 -29v-82c0 -18 -6 -29 -29 -29h-60v-378h77zM276 716h-98c-19 0 -19 19 -13 28l67 108
c15 25 23 28 45 28h127c25 0 28 -19 19 -28l-100 -108c-14 -14 -22 -28 -47 -28z" />
    <glyph glyph-name="Icircumflex" unicode="&#xce;" horiz-adv-x="494" 
d="M396 140c23 0 29 -11 29 -29v-82c0 -18 -6 -29 -29 -29h-311c-23 0 -29 11 -29 29v82c0 18 6 29 29 29h77v378h-61c-23 0 -29 11 -29 29v82c0 18 6 29 29 29h278c23 0 29 -11 29 -29v-82c0 -18 -6 -29 -29 -29h-60v-378h77zM333 716c-16 0 -26 11 -34 21l-51 62l-51 -62
c-8 -10 -19 -21 -35 -21h-88c-16 0 -22 16 -12 26l120 137c7 8 17 12 27 12h78c9 0 20 -4 27 -12l119 -137c10 -10 4 -26 -11 -26h-89z" />
    <glyph glyph-name="Idieresis" unicode="&#xcf;" horiz-adv-x="527" 
d="M419 140c23 0 29 -11 29 -29v-82c0 -18 -6 -29 -29 -29h-311c-23 0 -29 11 -29 29v82c0 18 6 29 29 29h77v378h-61c-23 0 -29 11 -29 29v82c0 18 6 29 29 29h278c23 0 29 -11 29 -29v-82c0 -18 -6 -29 -29 -29h-60v-378h77zM195 839c17 0 29 -6 29 -29v-65
c0 -23 -12 -29 -29 -29h-110c-19 0 -29 6 -29 29v65c0 23 10 29 29 29h110zM442 839c18 0 29 -6 29 -29v-65c0 -23 -11 -29 -29 -29h-110c-18 0 -29 6 -29 29v65c0 23 11 29 29 29h110z" />
    <glyph glyph-name="Ntilde" unicode="&#xd1;" horiz-adv-x="682" 
d="M579 658c18 0 29 -6 29 -29v-600c0 -18 -6 -29 -29 -29h-91c-25 0 -32 14 -45 34l-212 343v-348c0 -23 -11 -29 -29 -29h-99c-18 0 -29 6 -29 29v600c0 18 6 29 29 29h94c25 0 32 -14 45 -34l212 -342v347c0 23 11 29 29 29h96zM531 847c12 0 12 -14 12 -20v-1
c0 -59 -43 -110 -108 -110c-26 0 -59 10 -81 18c0 0 -59 21 -71 23c-13 2 -29 -3 -35 -23c-3 -10 -7 -18 -25 -18h-46c-12 0 -12 14 -12 20v1c0 59 43 110 108 110c26 0 59 -10 81 -18c0 0 59 -21 71 -23c13 -2 29 3 35 23c3 10 7 18 25 18h46z" />
    <glyph glyph-name="Ograve" unicode="&#xd2;" horiz-adv-x="645" 
d="M416 716h-98c-25 0 -33 14 -47 28l-100 108c-9 9 -6 28 19 28h127c22 0 30 -3 45 -28l67 -108c6 -9 6 -28 -13 -28zM591 447v-236c0 -158 -150 -226 -269 -226s-267 68 -267 226v236c0 158 148 226 267 226s269 -68 269 -226zM434 225v208c0 64 -46 101 -112 101
c-65 0 -111 -37 -111 -101v-208c0 -64 46 -101 111 -101c66 0 112 37 112 101z" />
    <glyph glyph-name="Oacute" unicode="&#xd3;" horiz-adv-x="645" 
d="M591 447v-236c0 -158 -150 -226 -269 -226s-267 68 -267 226v236c0 158 148 226 267 226s269 -68 269 -226zM434 225v208c0 64 -46 101 -112 101c-65 0 -111 -37 -111 -101v-208c0 -64 46 -101 111 -101c66 0 112 37 112 101zM326 716h-98c-19 0 -19 19 -13 28l67 108
c15 25 23 28 45 28h127c25 0 28 -19 19 -28l-100 -108c-14 -14 -22 -28 -47 -28z" />
    <glyph glyph-name="Ocircumflex" unicode="&#xd4;" horiz-adv-x="645" 
d="M591 447c0 158 -150 226 -269 226s-267 -68 -267 -226v-236c0 -158 148 -226 267 -226s269 68 269 226v236zM434 433v-208c0 -64 -46 -101 -112 -101c-65 0 -111 37 -111 101v208c0 64 46 101 111 101c66 0 112 -37 112 -101zM408 716c-16 0 -26 11 -34 21l-51 62
l-51 -62c-8 -10 -19 -21 -35 -21h-88c-16 0 -22 16 -12 26l120 137c7 8 17 12 27 12h78c9 0 20 -4 27 -12l119 -137c10 -10 4 -26 -11 -26h-89z" />
    <glyph glyph-name="Otilde" unicode="&#xd5;" horiz-adv-x="645" 
d="M591 447c0 158 -150 226 -269 226s-267 -68 -267 -226v-236c0 -158 148 -226 267 -226s269 68 269 226v236zM434 433v-208c0 -64 -46 -101 -112 -101c-65 0 -111 37 -111 101v208c0 64 46 101 111 101c66 0 112 -37 112 -101zM499 847c12 0 12 -14 12 -20v-1
c0 -59 -43 -110 -108 -110c-26 0 -59 10 -81 18c0 0 -59 21 -71 23c-13 2 -29 -3 -35 -23c-3 -10 -7 -18 -25 -18h-46c-12 0 -12 14 -12 20v1c0 59 43 110 108 110c26 0 59 -10 81 -18c0 0 59 -21 71 -23c13 -2 29 3 35 23c3 10 7 18 25 18h46z" />
    <glyph glyph-name="Odieresis" unicode="&#xd6;" horiz-adv-x="645" 
d="M591 447c0 158 -150 226 -269 226s-267 -68 -267 -226v-236c0 -158 148 -226 267 -226s269 68 269 226v236zM434 433v-208c0 -64 -46 -101 -112 -101c-65 0 -111 37 -111 101v208c0 64 46 101 111 101c66 0 112 -37 112 -101zM253 839c17 0 29 -6 29 -29v-65
c0 -23 -12 -29 -29 -29h-110c-19 0 -29 6 -29 29v65c0 23 10 29 29 29h110zM500 839c18 0 29 -6 29 -29v-65c0 -23 -11 -29 -29 -29h-110c-18 0 -29 6 -29 29v65c0 23 11 29 29 29h110z" />
    <glyph glyph-name="Ugrave" unicode="&#xd9;" horiz-adv-x="661" 
d="M566 658c18 0 29 -6 29 -29v-428c0 -157 -146 -216 -265 -216s-264 59 -264 216v428c0 23 11 29 29 29h99c18 0 29 -6 29 -29v-406c0 -63 41 -99 107 -99s108 36 108 99v406c0 23 11 29 29 29h99zM416 716h-98c-25 0 -33 14 -47 28l-100 108c-9 9 -6 28 19 28h127
c22 0 30 -3 45 -28l67 -108c6 -9 6 -28 -13 -28z" />
    <glyph glyph-name="Uacute" unicode="&#xda;" horiz-adv-x="661" 
d="M566 658c18 0 29 -6 29 -29v-428c0 -157 -146 -216 -265 -216s-264 59 -264 216v428c0 23 11 29 29 29h99c18 0 29 -6 29 -29v-406c0 -63 41 -99 107 -99s108 36 108 99v406c0 23 11 29 29 29h99zM338 716h-98c-19 0 -19 19 -13 28l67 108c15 25 23 28 45 28h127
c25 0 28 -19 19 -28l-100 -108c-14 -14 -22 -28 -47 -28z" />
    <glyph glyph-name="Ucircumflex" unicode="&#xdb;" horiz-adv-x="661" 
d="M566 658c18 0 29 -6 29 -29v-428c0 -157 -146 -216 -265 -216s-264 59 -264 216v428c0 23 11 29 29 29h99c18 0 29 -6 29 -29v-406c0 -63 41 -99 107 -99s108 36 108 99v406c0 23 11 29 29 29h99zM415 716c-16 0 -26 11 -34 21l-51 62l-51 -62c-8 -10 -19 -21 -35 -21
h-88c-16 0 -22 16 -12 26l120 137c7 8 17 12 27 12h78c9 0 20 -4 27 -12l119 -137c10 -10 4 -26 -11 -26h-89z" />
    <glyph glyph-name="Udieresis" unicode="&#xdc;" horiz-adv-x="661" 
d="M262 839c17 0 29 -6 29 -29v-65c0 -23 -12 -29 -29 -29h-110c-19 0 -29 6 -29 29v65c0 23 10 29 29 29h110zM509 839c18 0 29 -6 29 -29v-65c0 -23 -11 -29 -29 -29h-110c-18 0 -29 6 -29 29v65c0 23 11 29 29 29h110zM566 658c18 0 29 -6 29 -29v-428
c0 -157 -146 -216 -265 -216s-264 59 -264 216v428c0 23 11 29 29 29h99c18 0 29 -6 29 -29v-406c0 -63 41 -99 107 -99s108 36 108 99v406c0 23 11 29 29 29h99z" />
    <glyph glyph-name="Yacute" unicode="&#xdd;" horiz-adv-x="604" 
d="M575 658c19 0 21 -17 16 -28l-206 -383v-218c0 -23 -11 -29 -29 -29h-100c-19 0 -29 6 -29 29v218l-214 383c-5 11 -3 28 16 28h115c23 0 33 -3 47 -30l117 -215l113 215c13 27 23 30 46 30h108zM341 716h-98c-19 0 -19 19 -13 28l67 108c15 25 23 28 45 28h127
c25 0 28 -19 19 -28l-100 -108c-14 -14 -22 -28 -47 -28z" />
    <glyph glyph-name="ellipsis" unicode="&#x2026;" horiz-adv-x="899" 
d="M197 168c18 0 29 -6 29 -29v-111c0 -23 -11 -29 -29 -29h-111c-18 0 -29 6 -29 29v111c0 23 11 29 29 29h111zM749 168c18 0 29 -6 29 -29v-111c0 -23 -11 -29 -29 -29h-111c-18 0 -29 6 -29 29v111c0 23 11 29 29 29h111zM473 168c18 0 29 -6 29 -29v-111
c0 -23 -11 -29 -29 -29h-111c-18 0 -29 6 -29 29v111c0 23 11 29 29 29h111z" />
    <glyph glyph-name="questiondown" unicode="&#xbf;" horiz-adv-x="538" 
d="M34 9c0 -126 113 -183 231 -183c172 0 224 118 232 197c0 22 -1 31 -17 31h-100c-24 0 -28 -15 -31 -31v0c-7 -27 -34 -63 -85 -63c-37 0 -69 23 -69 55c0 46 62 57 97 93c36 37 53 76 53 147c0 20 -6 32 -32 32h-83c-26 0 -32 -8 -32 -32c0 -57 -42 -86 -77 -110
c-38 -27 -87 -66 -87 -136zM330 329h-111c-18 0 -29 6 -29 29v111c0 23 11 29 29 29h111c18 0 29 -6 29 -29v-111c0 -23 -11 -29 -29 -29z" />
    <glyph glyph-name="degree" unicode="&#xb0;" horiz-adv-x="392" 
d="M47 525c0 86 63 149 149 149s149 -63 149 -149s-63 -149 -149 -149s-149 63 -149 149zM125 525c0 -41 32 -71 71 -71s71 30 71 71s-32 71 -71 71s-71 -30 -71 -71z" />
    <glyph glyph-name="plusminus" unicode="&#xb1;" horiz-adv-x="561" 
d="M483 354c18 0 29 -6 29 -29v-69c0 -23 -11 -29 -29 -29h-139v-100h139c18 0 29 -6 29 -29v-69c0 -23 -11 -29 -29 -29h-405c-18 0 -29 6 -29 29v69c0 23 11 29 29 29h139v100h-139c-18 0 -29 6 -29 29v69c0 23 11 29 29 29h139v89c0 18 6 29 29 29h69c23 0 29 -11 29 -29
v-89h139z" />
    <glyph glyph-name="periodcentered" unicode="&#xb7;" horiz-adv-x="294" 
d="M57 237c0 55 44 99 99 99s99 -44 99 -99s-44 -99 -99 -99s-99 44 -99 99z" />
    <glyph glyph-name="cedilla" unicode="&#xb8;" horiz-adv-x="500" 
d="M274 50h55c17 0 17 -17 12 -25l-30 -69c153 -16 126 -240 -32 -240h-67c-41 0 -74 14 -96 37c-45 45 22 111 67 68c8 -7 19 -13 31 -13h63c44 0 46 75 0 77h-72c-17 0 -21 11 -14 28c51 100 61 137 83 137z" />
    <glyph glyph-name="bullet" unicode="&#x2022;" horiz-adv-x="470" 
d="M72 357c0 73 57 130 130 130s131 -57 131 -130s-58 -131 -131 -131s-130 58 -130 131z" />
    <glyph glyph-name="space" unicode=" " horiz-adv-x="271" 
 />
    <glyph glyph-name="at" unicode="@" horiz-adv-x="833" 
d="M691 0h-85c-26 0 -30 12 -30 23v10c-24 -21 -50 -35 -95 -35c-43 0 -81 14 -108 39c-41 40 -43 90 -43 168c0 79 2 119 43 159c27 26 64 40 107 40c37 0 71 -15 91 -31v22c0 37 -8 62 -26 80s-45 27 -81 27h-104c-26 0 -64 -3 -88 -27c-22 -22 -26 -47 -26 -80v-221
c0 -27 4 -42 17 -58c7 -9 2 -26 -10 -36l-74 -55c-9 -6 -28 -7 -36 3c-31 40 -42 77 -42 137v235c0 75 9 135 57 183c50 50 125 57 192 57h124c67 0 134 -7 184 -57c48 -48 57 -108 57 -183v-370c0 -10 -5 -30 -24 -30zM571 173v50c0 36 -26 61 -61 61
c-33 0 -58 -25 -58 -61v-50c0 -35 25 -60 58 -60c35 0 61 25 61 60z" />
    <glyph glyph-name="asciitilde" unicode="~" horiz-adv-x="833" 
d="M656 314c10 -10 10 -25 -3 -39c-33 -30 -81 -67 -143 -67c-35 0 -73 10 -104 27c-31 18 -52 25 -81 25c-21 0 -41 -10 -59 -21c-13 -8 -32 -5 -41 6l-51 51c-10 10 -11 26 2 40c33 30 81 66 143 66c35 0 73 -10 104 -27c32 -18 52 -25 81 -25c21 0 41 10 59 21
c13 8 32 6 42 -5z" />
    <glyph glyph-name="ydieresis" unicode="&#xff;" horiz-adv-x="833" 
 />
    <glyph glyph-name="dollar" unicode="$" horiz-adv-x="605" 
d="M394 381c72 -22 178 -51 178 -187c0 -120 -81 -188 -199 -205v-76c0 -18 -6 -29 -29 -29h-78c-23 0 -29 11 -29 29v78c-104 22 -200 91 -200 205c0 23 6 28 29 28h97c23 0 34 -3 36 -28c1 -13 6 -26 19 -41c20 -24 61 -33 98 -33c54 0 98 12 98 68s-89 57 -174 84
c-101 32 -194 72 -194 199c0 112 87 174 191 193v77c0 18 6 29 29 29h78c23 0 29 -11 29 -29v-80c97 -20 182 -78 182 -181c0 -24 -6 -28 -29 -28h-98c-19 0 -22 14 -27 27c-4 11 -9 19 -21 30c-19 18 -55 27 -85 27c-33 0 -88 -13 -88 -58c0 -61 147 -83 187 -99z" />
    <glyph glyph-name="guillemotright" unicode="&#xbb;" horiz-adv-x="473" 
d="M294 485l137 -120c8 -7 12 -17 12 -27v-78c0 -9 -4 -20 -12 -27l-137 -119c-10 -10 -26 -4 -26 11v89c0 16 11 26 21 34l62 51l-62 51c-10 8 -21 19 -21 35v88c0 16 16 22 26 12zM60 385v88c0 16 16 22 26 12l137 -120c8 -7 12 -17 12 -27v-78c0 -9 -4 -20 -12 -27
l-137 -119c-10 -10 -26 -4 -26 11v89c0 16 11 26 21 34l62 51l-62 51c-10 8 -21 19 -21 35z" />
    <glyph glyph-name="perthousand" unicode="&#x2030;" horiz-adv-x="1243" 
d="M345 460c0 -81 -67 -132 -145 -132s-145 51 -145 132v87c0 81 67 133 145 133s145 -52 145 -133v-87zM238 462v83c0 20 -15 43 -38 43s-39 -23 -39 -43v-83c0 -21 16 -43 39 -43s38 22 38 43zM1042 369c78 0 145 -53 145 -132v-88c0 -81 -67 -133 -145 -133
s-145 52 -145 133v88c0 79 67 132 145 132zM1081 152v82c0 21 -16 44 -39 44s-38 -23 -38 -44v-82c0 -21 15 -44 38 -44s39 23 39 44zM655 698c18 0 21 -14 16 -26l-352 -643c-7 -12 -16 -29 -36 -29h-58c-19 0 -21 13 -16 25l351 643c7 12 17 30 37 30h58zM689 369
c78 0 145 -53 145 -132v-88c0 -81 -67 -133 -145 -133s-145 52 -145 133v88c0 79 67 132 145 132zM728 152v82c0 21 -16 44 -39 44s-38 -23 -38 -44v-82c0 -21 15 -44 38 -44s39 23 39 44z" />
    <glyph glyph-name="Ydieresis" unicode="&#x178;" horiz-adv-x="613" 
d="M124 735c-18 0 -29 6 -29 29v65c0 23 11 29 29 29h110c18 0 29 -6 29 -29v-65c0 -23 -11 -29 -29 -29h-110zM372 735c-18 0 -29 6 -29 29v65c0 23 11 29 29 29h110c18 0 29 -6 29 -29v-65c0 -23 -11 -29 -29 -29h-110zM576 658c19 0 22 -17 16 -28l-206 -383v-218
c0 -23 -11 -29 -29 -29h-100c-18 0 -29 6 -29 29v218l-214 383c-5 11 -3 28 16 28h115c23 0 33 -3 47 -30l117 -215l113 215c14 27 23 30 46 30h108z" />
    <glyph glyph-name="A" unicode="A" 
d="M640 28c5 -12 5 -28 -17 -28h-105c-22 0 -30 6 -38 30l-28 79h-245l-28 -79c-8 -24 -16 -30 -38 -30h-105c-22 0 -22 16 -17 28l222 599c8 21 19 31 41 31h96c22 0 32 -10 41 -31zM255 249h150l-75 221z" />
    <glyph glyph-name="paragraph" unicode="&#xb6;" horiz-adv-x="833" 
d="M587 658c28 0 39 -6 39 -29v-600c0 -23 -11 -29 -29 -29h-69c-18 0 -29 6 -29 29v512h-78v-512c0 -23 -11 -29 -29 -29h-69c-18 0 -29 6 -29 29v259h-32c-72 0 -131 59 -131 131v108c0 72 69 131 130 131h326z" />
    <glyph glyph-name="braceleft" unicode="{" horiz-adv-x="499" 
d="M426 328c23 0 29 -11 29 -29v-82c0 -18 -6 -29 -29 -29h-32c-22 -1 -37 -6 -49 -17c-11 -12 -16 -31 -16 -60v-115c0 -30 -8 -74 -46 -112c-27 -26 -66 -40 -114 -40h-96c-23 0 -29 11 -29 29v82c0 18 6 29 29 29h47c21 1 36 4 46 14c12 11 16 29 16 63v101
c0 77 50 90 70 95l6 2l-7 1c-19 5 -69 18 -69 95v101c0 34 -4 51 -16 63c-10 10 -25 13 -46 14h-47c-23 0 -29 11 -29 29v82c0 18 6 29 29 29h96c48 0 87 -14 114 -40c38 -38 46 -82 46 -112v-115c0 -29 5 -48 16 -60c13 -12 31 -18 56 -18h25z" />
    <glyph glyph-name="braceright" unicode="}" horiz-adv-x="499" 
d="M73 328h25c25 0 43 6 56 18c11 12 16 31 16 60v115c0 30 8 74 46 112c27 26 66 40 114 40h96c23 0 29 -11 29 -29v-82c0 -18 -6 -29 -29 -29h-47c-21 -1 -36 -4 -46 -14c-12 -12 -16 -29 -16 -63v-101c0 -77 -50 -90 -69 -95l-7 -1l6 -2c20 -5 70 -18 70 -95v-101
c0 -34 4 -52 16 -63c10 -10 25 -13 46 -14h47c23 0 29 -11 29 -29v-82c0 -18 -6 -29 -29 -29h-96c-48 0 -87 14 -114 40c-38 38 -46 82 -46 112v115c0 29 -5 48 -16 60c-12 11 -27 16 -49 17h-32c-23 0 -29 11 -29 29v82c0 18 6 29 29 29z" />
    <glyph glyph-name="section" unicode="&#xa7;" horiz-adv-x="541" 
d="M496 267c0 -56 -24 -102 -65 -122c27 -26 44 -65 44 -100c0 -115 -101 -167 -200 -167c-152 0 -206 78 -206 151c0 31 8 35 29 35h76c30 0 32 -21 32 -21c3 -13 9 -23 18 -31c11 -10 29 -16 48 -16c33 0 55 19 55 48c0 34 -49 55 -106 79c-78 33 -176 75 -176 172
c0 64 29 113 81 137c-27 24 -41 52 -41 86c0 101 100 155 194 155c178 0 194 -142 194 -144c0 -19 0 -34 -29 -34h-75c-22 0 -28 14 -34 27c-3 7 -7 14 -12 19c-10 9 -24 14 -42 14c-23 0 -48 -12 -48 -40c0 -26 30 -40 54 -52l6 -2c1 -1 77 -37 103 -49
c65 -29 100 -81 100 -145zM329 222c21 0 38 15 38 34c0 18 -11 32 -36 44l-89 43c-8 3 -15 5 -23 5c-19 0 -34 -14 -35 -33c-2 -21 13 -30 33 -42l93 -47c6 -3 13 -4 19 -4z" />
    <glyph glyph-name="a" unicode="a" 
d="M640 28c5 -12 5 -28 -17 -28h-105c-22 0 -30 6 -38 30l-28 79h-245l-28 -79c-8 -24 -16 -30 -38 -30h-105c-22 0 -22 16 -17 28l222 599c8 21 19 31 41 31h96c22 0 32 -10 41 -31zM255 249h150l-75 221z" />
    <glyph glyph-name="b" unicode="b" horiz-adv-x="687" 
d="M543 341c8 -3 92 -41 92 -149c0 -127 -99 -192 -238 -192h-294c-23 0 -29 11 -29 29v601c0 18 6 29 29 29h280c163 0 233 -87 233 -181c0 -101 -64 -133 -73 -137zM399 142c49 0 77 20 77 65c0 47 -35 61 -83 61h-23c-23 0 -29 11 -29 29v76c0 18 6 29 29 29h13v0
c58 0 83 21 83 60c0 45 -31 56 -83 56h-152v-376h168z" />
    <glyph glyph-name="c" unicode="c" horiz-adv-x="632" 
d="M581 195c0 -129 -136 -210 -260 -210c-119 0 -268 69 -268 226v236c0 157 149 226 268 226c124 0 247 -63 260 -190c0 -24 -8 -29 -31 -29h-96c-21 0 -22 19 -30 31c-21 33 -49 48 -103 48c-66 0 -111 -37 -111 -100v-208c0 -64 45 -100 111 -100c54 0 97 20 105 68
c3 20 5 36 27 36h98c22 0 30 -10 30 -34z" />
    <glyph glyph-name="d" unicode="d" horiz-adv-x="650" 
d="M327 658c119 0 269 -69 269 -225v-208c0 -157 -150 -225 -269 -225h-224c-23 0 -29 11 -29 29v600c0 18 6 29 29 29h224zM439 239v180c0 63 -46 100 -112 100h-96v-380h96c66 0 112 36 112 100z" />
    <glyph glyph-name="e" unicode="e" horiz-adv-x="627" 
d="M551 140c23 0 29 -11 29 -29v-82c0 -18 -6 -29 -29 -29h-448c-23 0 -29 11 -29 29v600c0 18 6 29 29 29h431c23 0 29 -11 29 -29v-83c0 -18 -6 -29 -29 -29h-302v-109h268c23 0 29 -11 29 -29v-78c0 -18 -6 -29 -29 -29h-268v-132h319z" />
    <glyph glyph-name="f" unicode="f" horiz-adv-x="602" 
d="M533 658c23 0 29 -11 29 -29v-82c0 -18 -6 -29 -29 -29h-302v-117h260c23 0 29 -11 29 -29v-79c0 -18 -6 -29 -29 -29h-260v-234c0 -26 -6 -30 -29 -30h-99c-23 0 -29 11 -29 29v600c0 18 6 29 29 29h430z" />
    <glyph glyph-name="g" unicode="g" horiz-adv-x="646" 
d="M563 367c23 0 29 -11 29 -29v-145c-9 -144 -155 -208 -269 -208c-118 0 -269 60 -269 217v246c0 158 151 225 269 225c125 0 269 -72 269 -206c0 -24 -6 -28 -29 -28h-97c-28 0 -24 20 -29 34c-11 31 -47 61 -114 61c-66 0 -110 -44 -110 -108v-201
c0 -64 44 -101 110 -101c65 0 111 30 111 107h-90c-23 0 -29 11 -29 29v78c0 18 6 29 29 29h219z" />
    <glyph glyph-name="h" unicode="h" horiz-adv-x="685" 
d="M582 658c18 0 29 -6 29 -29v-600c0 -23 -11 -29 -29 -29h-99c-18 0 -29 6 -29 29v226h-223v-226c0 -23 -10 -29 -29 -29h-99c-18 0 -29 6 -29 29v600c0 23 11 29 29 29h99c19 0 29 -6 29 -29v-226h223v226c0 23 11 29 29 29h99z" />
    <glyph glyph-name="i" unicode="i" horiz-adv-x="444" 
d="M360 137c23 0 29 -11 29 -29v-79c0 -18 -6 -29 -29 -29h-283c-23 0 -29 11 -29 29v79c0 18 6 29 29 29h63v382h-61c-23 0 -29 11 -29 29v81c0 18 6 29 29 29h278c23 0 29 -11 29 -29v-81c0 -18 -6 -29 -29 -29h-60v-382h63z" />
    <glyph glyph-name="j" unicode="j" horiz-adv-x="580" 
d="M484 663c23 0 29 -11 29 -29v-419c0 -156 -129 -215 -248 -215c-133 0 -235 75 -235 216c0 5 1 27 24 27h106c23 0 25 -16 25 -21c3 -59 35 -83 80 -83c66 0 91 36 91 98v285h-175c-24 0 -29 11 -29 29v83c0 18 5 29 29 29h303z" />
    <glyph glyph-name="k" unicode="k" horiz-adv-x="654" 
d="M622 658c19 0 19 -19 10 -28l-225 -244l215 -354c8 -13 4 -32 -15 -32h-122c-24 0 -37 11 -50 32c0 0 -89 150 -143 240l-62 -65v-178c0 -23 -11 -29 -28 -29h-99c-19 0 -29 6 -29 29v600c0 23 10 29 29 29h99c17 0 28 -6 28 -29v-223l207 228c20 22 27 24 50 24h135z
" />
    <glyph glyph-name="l" unicode="l" horiz-adv-x="582" 
d="M519 140c23 0 29 -11 29 -29v-82c0 -18 -6 -29 -29 -29h-416c-23 0 -29 11 -29 29v600c0 23 11 29 29 29h99c18 0 29 -6 29 -29v-489h288z" />
    <glyph glyph-name="m" unicode="m" horiz-adv-x="767" 
d="M664 659c23 0 29 -11 29 -29v-601c0 -23 -11 -29 -29 -29h-96c-18 0 -29 6 -29 29v339l-100 -175c-5 -8 -14 -21 -29 -21h-50c-15 0 -23 13 -28 21l-101 175v-339c0 -23 -11 -29 -29 -29h-99c-18 0 -29 6 -29 29v601c0 18 6 29 29 29h99c34 0 38 -22 46 -34l137 -246
l138 246c7 12 12 34 45 34h96z" />
    <glyph glyph-name="n" unicode="n" horiz-adv-x="682" 
d="M579 658c18 0 29 -6 29 -29v-600c0 -18 -6 -29 -29 -29h-91c-25 0 -32 14 -45 34l-212 343v-348c0 -23 -11 -29 -29 -29h-99c-18 0 -29 6 -29 29v600c0 18 6 29 29 29h94c25 0 32 -14 45 -34l212 -342v347c0 23 11 29 29 29h96z" />
    <glyph glyph-name="o" unicode="o" horiz-adv-x="645" 
d="M591 447v-236c0 -158 -150 -226 -269 -226s-267 68 -267 226v236c0 158 148 226 267 226s269 -68 269 -226zM434 225v208c0 64 -46 101 -112 101c-65 0 -111 -37 -111 -101v-208c0 -64 46 -101 111 -101c66 0 112 37 112 101z" />
    <glyph glyph-name="p" unicode="p" horiz-adv-x="628" 
d="M328 658c172 0 262 -94 262 -232c0 -139 -92 -231 -263 -231h-96v-166c0 -23 -11 -29 -29 -29h-99c-18 0 -29 6 -29 29v600c0 18 6 29 29 29h225zM327 330c78 0 112 43 112 93c0 52 -34 94 -112 94h-96v-187h96z" />
    <glyph glyph-name="q" unicode="q" horiz-adv-x="646" 
d="M593 47c13 -12 13 -29 -4 -46l-48 -39c-16 -16 -32 -18 -45 -5l-48 49c-42 -18 -84 -22 -127 -22c-119 0 -267 68 -267 226v236c0 158 148 226 267 226s269 -68 269 -226v-236c0 -51 -9 -87 -35 -120zM434 225v208c0 64 -46 101 -112 101c-65 0 -111 -37 -111 -101v-208
c0 -64 46 -101 111 -101c66 0 112 37 112 101z" />
    <glyph glyph-name="r" unicode="r" horiz-adv-x="666" 
d="M613 32c9 -14 4 -32 -15 -32h-118c-24 0 -36 9 -50 30l-108 161c-9 12 -11 23 -11 51v80c0 18 6 29 29 29h20c49 0 95 34 95 81c0 52 -40 85 -92 85h-133v-488c0 -23 -11 -29 -29 -29h-99c-18 0 -28 6 -28 29v599c0 18 5 29 28 29h252c109 0 157 -22 199 -64
c37 -36 58 -93 58 -157c0 -105 -77 -178 -139 -199z" />
    <glyph glyph-name="s" unicode="s" horiz-adv-x="605" 
d="M384 382c72 -22 178 -51 178 -187c0 -142 -112 -210 -266 -210c-125 0 -269 72 -269 212c0 23 6 28 29 28h97c23 0 34 -3 36 -28c1 -13 6 -26 19 -41c20 -24 61 -33 98 -33c54 0 98 12 98 68s-89 57 -174 84c-101 32 -194 72 -194 199c0 130 118 194 243 199
c127 0 266 -58 266 -190c0 -24 -6 -28 -29 -28h-98c-19 0 -22 14 -27 27c-4 10 -9 18 -21 30c-19 18 -55 27 -85 27c-33 0 -88 -13 -88 -58c0 -61 147 -83 187 -99z" />
    <glyph glyph-name="t" unicode="t" horiz-adv-x="574" 
d="M519 658c23 0 29 -11 29 -29v-83c0 -18 -6 -29 -29 -29h-153v-488c0 -23 -11 -29 -29 -29h-99c-18 0 -29 6 -29 29v488h-154c-23 0 -29 11 -29 29v83c0 18 6 29 29 29h464z" />
    <glyph glyph-name="u" unicode="u" horiz-adv-x="661" 
d="M566 658c18 0 29 -6 29 -29v-428c0 -157 -146 -216 -265 -216s-264 59 -264 216v428c0 23 11 29 29 29h99c18 0 29 -6 29 -29v-406c0 -63 41 -99 107 -99s108 36 108 99v406c0 23 11 29 29 29h99z" />
    <glyph glyph-name="v" unicode="v" horiz-adv-x="636" 
d="M599 658c19 0 23 -16 18 -29l-214 -599c-12 -26 -19 -30 -41 -30h-96c-22 0 -29 4 -41 30l-215 599c-5 13 -1 29 18 29h111c26 0 33 -8 41 -32l136 -414l135 414c8 24 15 32 42 32h106z" />
    <glyph glyph-name="w" unicode="w" horiz-adv-x="898" 
d="M859 658c18 0 21 -17 17 -29l-184 -608s-5 -21 -27 -21h-84c-26 0 -32 23 -32 23l-100 319l-100 -319s-6 -23 -32 -23h-88c-22 0 -27 21 -27 21l-185 608c-3 12 0 29 18 29h110c30 0 36 -20 40 -32l99 -340l96 340c4 14 11 32 34 32h70c22 0 29 -18 33 -32l97 -340
l99 340c3 12 10 32 40 32h106z" />
    <glyph glyph-name="x" unicode="x" horiz-adv-x="586" 
d="M386 337l177 -306c8 -12 3 -31 -12 -31h-114c-22 0 -30 2 -44 28l-99 178l-100 -178c-13 -26 -22 -28 -44 -28h-114c-15 0 -20 19 -12 31l178 306l-181 293c-6 11 -2 28 15 28h118c19 0 27 -8 40 -29l100 -161l99 161c14 21 21 29 41 29h117c17 0 22 -17 15 -28z" />
    <glyph glyph-name="y" unicode="y" horiz-adv-x="604" 
d="M575 658c19 0 21 -17 16 -28l-206 -383v-218c0 -23 -11 -29 -29 -29h-100c-19 0 -29 6 -29 29v218l-214 383c-5 11 -3 28 16 28h115c23 0 33 -3 47 -30l117 -215l113 215c13 27 23 30 46 30h108z" />
    <glyph glyph-name="z" unicode="z" horiz-adv-x="567" 
d="M502 140c23 0 29 -11 29 -29v-82c0 -18 -6 -29 -29 -29h-436c-26 0 -30 5 -30 29v78c0 23 13 38 13 38l270 373h-245c-23 0 -29 11 -29 29v82c0 18 6 29 29 29h402c23 0 29 -11 29 -29v-78c0 -13 -3 -26 -13 -39l-268 -372h278z" />
    <glyph glyph-name="Scaron" unicode="&#x160;" horiz-adv-x="605" 
d="M384 382c72 -22 178 -51 178 -187c0 -142 -112 -210 -266 -210c-125 0 -269 72 -269 212c0 23 6 28 29 28h97c23 0 34 -3 36 -28c1 -13 6 -26 19 -41c20 -24 61 -33 98 -33c54 0 98 12 98 68s-89 57 -174 84c-101 32 -194 72 -194 199c0 130 118 194 243 199
c127 0 266 -58 266 -190c0 -24 -6 -28 -29 -28h-98c-19 0 -22 14 -27 27c-4 10 -9 18 -21 30c-19 18 -55 27 -85 27c-33 0 -88 -13 -88 -58c0 -61 147 -83 187 -99zM202 908c16 0 27 -11 35 -21l51 -62l51 62c8 10 18 21 34 21h89c15 0 21 -16 11 -26l-119 -137
c-7 -8 -18 -12 -27 -12h-78c-10 0 -20 4 -27 12l-120 137c-10 10 -4 26 12 26h88z" />
    <glyph glyph-name="Zcaron" unicode="&#x17d;" horiz-adv-x="567" 
d="M502 140c23 0 29 -11 29 -29v-82c0 -18 -6 -29 -29 -29h-436c-26 0 -30 5 -30 29v78c0 23 13 38 13 38l270 373h-245c-23 0 -29 11 -29 29v82c0 18 6 29 29 29h402c23 0 29 -11 29 -29v-78c0 -13 -3 -26 -13 -39l-268 -372h278zM202 911c16 0 27 -11 35 -21l51 -62l51 62
c8 10 18 21 34 21h89c15 0 21 -16 11 -26l-119 -137c-7 -8 -18 -12 -27 -12h-78c-10 0 -20 4 -27 12l-120 137c-10 10 -4 26 12 26h88z" />
    <glyph glyph-name="scaron" unicode="&#x161;" horiz-adv-x="605" 
d="M384 382c72 -22 178 -51 178 -187c0 -142 -112 -210 -266 -210c-125 0 -269 72 -269 212c0 23 6 28 29 28h97c23 0 34 -3 36 -28c1 -13 6 -26 19 -41c20 -24 61 -33 98 -33c54 0 98 12 98 68s-89 57 -174 84c-101 32 -194 72 -194 199c0 130 118 194 243 199
c127 0 266 -58 266 -190c0 -24 -6 -28 -29 -28h-98c-19 0 -22 14 -27 27c-4 10 -9 18 -21 30c-19 18 -55 27 -85 27c-33 0 -88 -13 -88 -58c0 -61 147 -83 187 -99zM201 921c16 0 27 -11 35 -21l51 -62l51 62c8 10 18 21 34 21h89c15 0 21 -16 11 -26l-119 -137
c-7 -8 -18 -12 -27 -12h-78c-10 0 -20 4 -27 12l-120 137c-10 10 -4 26 12 26h88z" />
    <glyph glyph-name="zcaron" unicode="&#x17e;" horiz-adv-x="567" 
d="M502 140c23 0 29 -11 29 -29v-82c0 -18 -6 -29 -29 -29h-436c-26 0 -30 5 -30 29v78c0 23 13 38 13 38l270 373h-245c-23 0 -29 11 -29 29v82c0 18 6 29 29 29h402c23 0 29 -11 29 -29v-78c0 -13 -3 -26 -13 -39l-268 -372h278zM204 913c16 0 27 -11 35 -21l51 -62l51 62
c8 10 18 21 34 21h89c15 0 21 -16 11 -26l-119 -137c-7 -8 -18 -12 -27 -12h-78c-10 0 -20 4 -27 12l-120 137c-10 10 -4 26 12 26h88z" />
    <glyph glyph-name="oe" unicode="&#x153;" horiz-adv-x="923" 
d="M848 140c23 0 29 -11 29 -29v-82c0 -18 -6 -29 -29 -29h-536c-118 2 -264 71 -264 227v204c0 156 146 227 264 227h520c22 0 28 -11 28 -29v-82c0 -18 -6 -29 -28 -29h-255v-111h220c23 0 29 -11 29 -29v-78c0 -18 -6 -29 -29 -29h-220v-131h271zM429 135v389h-112
c-66 0 -111 -51 -111 -115v-160c0 -64 45 -114 111 -114h112z" />
    <glyph glyph-name="guilsinglleft" unicode="&#x2039;" horiz-adv-x="254" 
d="M179 485c10 10 26 4 26 -12v-88c0 -16 -11 -27 -21 -35l-62 -51l62 -51c10 -8 21 -18 21 -34v-89c0 -15 -16 -21 -26 -11l-137 119c-8 7 -12 18 -12 27v78c0 10 4 20 12 27z" />
    <glyph glyph-name="guilsinglright" unicode="&#x203a;" horiz-adv-x="246" 
d="M65 485l137 -120c8 -7 12 -17 12 -27v-78c0 -9 -4 -20 -12 -27l-137 -119c-10 -10 -26 -4 -26 11v89c0 16 11 26 21 34l62 51l-62 51c-10 8 -21 19 -21 35v88c0 16 16 22 26 12z" />
    <glyph glyph-name="exclamdown" unicode="&#xa1;" horiz-adv-x="316" 
d="M183 295c24 0 26 -4 29 -29c42 -395 43 -398 43 -401c0 -17 -9 -21 -29 -21h-134c-21 0 -30 3 -30 21c0 3 1 6 44 401c3 26 5 29 28 29h49zM103 333c-18 0 -29 6 -29 29v111c0 23 11 29 29 29h111c18 0 29 -6 29 -29v-111c0 -23 -11 -29 -29 -29h-111z" />
    <glyph glyph-name="Ccedilla" unicode="&#xc7;" horiz-adv-x="632" 
d="M581 195c0 -106 -91 -179 -192 -202l-17 -39c153 -16 126 -240 -32 -240h-67c-41 0 -74 14 -96 37c-45 45 22 111 67 68c8 -7 19 -13 31 -13h63c44 0 46 75 0 77h-72c-17 0 -21 11 -14 28c16 31 27 56 37 76c-112 11 -236 81 -236 224v236c0 157 149 226 268 226
c124 0 247 -63 260 -190c0 -24 -8 -29 -31 -29h-96c-21 0 -22 19 -30 31c-21 33 -49 48 -103 48c-66 0 -111 -37 -111 -100v-208c0 -64 45 -100 111 -100c54 0 97 20 105 68c3 20 5 36 27 36h98c22 0 30 -10 30 -34z" />
    <glyph glyph-name="acircumflex" unicode="&#xe2;" 
d="M640 28c5 -12 5 -28 -17 -28h-105c-22 0 -30 6 -38 30l-28 79h-245l-28 -79c-8 -24 -16 -30 -38 -30h-105c-22 0 -22 16 -17 28l222 599c8 21 19 31 41 31h96c22 0 32 -10 41 -31zM255 249h150l-75 221zM419 737c-16 0 -26 11 -34 21l-51 62l-51 -62
c-8 -10 -19 -21 -35 -21h-88c-16 0 -22 16 -12 26l120 137c7 8 17 12 27 12h78c9 0 20 -4 27 -12l119 -137c10 -10 4 -26 -11 -26h-89z" />
    <glyph glyph-name="aacute" unicode="&#xe1;" 
d="M640 28c5 -12 5 -28 -17 -28h-105c-22 0 -30 6 -38 30l-28 79h-245l-28 -79c-8 -24 -16 -30 -38 -30h-105c-22 0 -22 16 -17 28l222 599c8 21 19 31 41 31h96c22 0 32 -10 41 -31zM255 249h150l-75 221zM366 740h-98c-19 0 -19 19 -13 28l67 108c15 25 23 28 45 28h127
c25 0 28 -19 19 -28l-100 -108c-14 -14 -22 -28 -47 -28z" />
    <glyph glyph-name="agrave" unicode="&#xe0;" 
d="M640 28c5 -12 5 -28 -17 -28h-105c-22 0 -30 6 -38 30l-28 79h-245l-28 -79c-8 -24 -16 -30 -38 -30h-105c-22 0 -22 16 -17 28l222 599c8 21 19 31 41 31h96c22 0 32 -10 41 -31zM255 249h150l-75 221zM387 744h-98c-25 0 -33 14 -47 28l-100 108c-9 9 -6 28 19 28h127
c22 0 30 -3 45 -28l67 -108c6 -9 6 -28 -13 -28z" />
    <glyph glyph-name="atilde" unicode="&#xe3;" 
d="M640 28c5 -12 5 -28 -17 -28h-105c-22 0 -30 6 -38 30l-28 79h-245l-28 -79c-8 -24 -16 -30 -38 -30h-105c-22 0 -22 16 -17 28l222 599c8 21 19 31 41 31h96c22 0 32 -10 41 -31zM255 249h150l-75 221zM502 864c12 0 12 -14 12 -20v-1c0 -59 -43 -110 -108 -110
c-26 0 -59 10 -81 18c0 0 -59 21 -71 23c-13 2 -29 -3 -35 -23c-3 -10 -7 -18 -25 -18h-46c-12 0 -12 14 -12 20v1c0 59 43 110 108 110c26 0 59 -10 81 -18c0 0 59 -21 71 -23c13 -2 29 3 35 23c3 10 7 18 25 18h46z" />
    <glyph glyph-name="adieresis" unicode="&#xe4;" 
d="M640 28c5 -12 5 -28 -17 -28h-105c-22 0 -30 6 -38 30l-28 79h-245l-28 -79c-8 -24 -16 -30 -38 -30h-105c-22 0 -22 16 -17 28l222 599c8 21 19 31 41 31h96c22 0 32 -10 41 -31zM255 249h150l-75 221zM263 866c17 0 29 -6 29 -29v-65c0 -23 -12 -29 -29 -29h-110
c-19 0 -29 6 -29 29v65c0 23 10 29 29 29h110zM510 866c18 0 29 -6 29 -29v-65c0 -23 -11 -29 -29 -29h-110c-18 0 -29 6 -29 29v65c0 23 11 29 29 29h110z" />
    <glyph glyph-name="aring" unicode="&#xe5;" 
d="M255 249h150l-75 221zM277 744c0 -28 25 -53 53 -53s52 26 52 53s-25 52 -52 52s-53 -24 -53 -52zM217 744c0 62 52 112 113 112s112 -51 112 -112c0 -36 -18 -69 -45 -90c10 -5 16 -14 22 -27l221 -599c5 -12 5 -28 -17 -28h-105c-22 0 -30 6 -38 30l-28 79h-245
l-28 -79c-8 -24 -16 -30 -38 -30h-105c-22 0 -22 16 -17 28l222 599c5 13 11 22 21 27c-28 20 -45 53 -45 90z" />
    <glyph glyph-name="ae" unicode="&#xe6;" horiz-adv-x="970" 
d="M895 140c23 0 29 -11 29 -29v-82c0 -18 -6 -29 -29 -29h-424c-15 0 -29 3 -29 24v85h-212l-38 -79c-11 -20 -22 -30 -45 -30h-117c-14 0 -20 14 -14 28l284 591c12 24 26 40 53 40h525c23 0 29 -11 29 -29v-82c0 -18 -6 -29 -29 -29h-286v-111h252c23 0 29 -11 29 -29
v-78c0 -18 -6 -29 -29 -29h-252v-132h303zM442 250v270h-32l-122 -270h154z" />
    <glyph glyph-name="ccedilla" unicode="&#xe7;" horiz-adv-x="632" 
d="M581 195c0 -108 -95 -181 -198 -203l-15 -36c153 -16 126 -240 -32 -240h-67c-41 0 -74 14 -96 37c-45 45 22 111 67 68c8 -7 19 -13 31 -13h63c44 0 46 75 0 77h-72c-17 0 -21 11 -14 28l36 74c-111 13 -231 82 -231 224v236c0 157 149 226 268 226
c124 0 247 -63 260 -190c0 -24 -8 -29 -31 -29h-96c-21 0 -22 19 -30 31c-21 33 -49 48 -103 48c-66 0 -111 -37 -111 -100v-208c0 -64 45 -100 111 -100c54 0 97 20 105 68c3 20 5 36 27 36h98c22 0 30 -10 30 -34z" />
    <glyph glyph-name="egrave" unicode="&#xe8;" horiz-adv-x="627" 
d="M551 140c23 0 29 -11 29 -29v-82c0 -18 -6 -29 -29 -29h-448c-23 0 -29 11 -29 29v600c0 18 6 29 29 29h431c23 0 29 -11 29 -29v-83c0 -18 -6 -29 -29 -29h-302v-109h268c23 0 29 -11 29 -29v-78c0 -18 -6 -29 -29 -29h-268v-132h319zM408 730h-98c-25 0 -33 14 -47 28
l-100 108c-9 9 -6 28 19 28h127c22 0 30 -3 45 -28l67 -108c6 -9 6 -28 -13 -28z" />
    <glyph glyph-name="eacute" unicode="&#xe9;" horiz-adv-x="627" 
d="M551 140c23 0 29 -11 29 -29v-82c0 -18 -6 -29 -29 -29h-448c-23 0 -29 11 -29 29v600c0 18 6 29 29 29h431c23 0 29 -11 29 -29v-83c0 -18 -6 -29 -29 -29h-302v-109h268c23 0 29 -11 29 -29v-78c0 -18 -6 -29 -29 -29h-268v-132h319zM354 735h-98c-19 0 -19 19 -13 28
l67 108c15 25 23 28 45 28h127c25 0 28 -19 19 -28l-100 -108c-14 -14 -22 -28 -47 -28z" />
    <glyph glyph-name="ecircumflex" unicode="&#xea;" horiz-adv-x="627" 
d="M551 140c23 0 29 -11 29 -29v-82c0 -18 -6 -29 -29 -29h-448c-23 0 -29 11 -29 29v600c0 18 6 29 29 29h431c23 0 29 -11 29 -29v-83c0 -18 -6 -29 -29 -29h-302v-109h268c23 0 29 -11 29 -29v-78c0 -18 -6 -29 -29 -29h-268v-132h319zM405 736c-16 0 -26 11 -34 21
l-51 62l-51 -62c-8 -10 -19 -21 -35 -21h-88c-16 0 -22 16 -12 26l120 137c7 8 17 12 27 12h78c9 0 20 -4 27 -12l119 -137c10 -10 4 -26 -11 -26h-89z" />
    <glyph glyph-name="edieresis" unicode="&#xeb;" horiz-adv-x="627" 
d="M551 140c23 0 29 -11 29 -29v-82c0 -18 -6 -29 -29 -29h-448c-23 0 -29 11 -29 29v600c0 18 6 29 29 29h431c23 0 29 -11 29 -29v-83c0 -18 -6 -29 -29 -29h-302v-109h268c23 0 29 -11 29 -29v-78c0 -18 -6 -29 -29 -29h-268v-132h319zM257 857c17 0 29 -6 29 -29v-65
c0 -23 -12 -29 -29 -29h-110c-19 0 -29 6 -29 29v65c0 23 10 29 29 29h110zM504 857c18 0 29 -6 29 -29v-65c0 -23 -11 -29 -29 -29h-110c-18 0 -29 6 -29 29v65c0 23 11 29 29 29h110z" />
    <glyph glyph-name="igrave" unicode="&#xec;" horiz-adv-x="481" 
d="M382 137c23 0 29 -11 29 -29v-79c0 -18 -6 -29 -29 -29h-283c-23 0 -29 11 -29 29v79c0 18 6 29 29 29h63v382h-61c-23 0 -29 11 -29 29v81c0 18 6 29 29 29h278c23 0 29 -11 29 -29v-81c0 -18 -6 -29 -29 -29h-60v-382h63zM311 733h-98c-25 0 -33 14 -47 28l-100 108
c-9 9 -6 28 19 28h127c22 0 30 -3 45 -28l67 -108c6 -9 6 -28 -13 -28z" />
    <glyph glyph-name="iacute" unicode="&#xed;" horiz-adv-x="481" 
d="M382 137c23 0 29 -11 29 -29v-79c0 -18 -6 -29 -29 -29h-283c-23 0 -29 11 -29 29v79c0 18 6 29 29 29h63v382h-61c-23 0 -29 11 -29 29v81c0 18 6 29 29 29h278c23 0 29 -11 29 -29v-81c0 -18 -6 -29 -29 -29h-60v-382h63zM268 727h-98c-19 0 -19 19 -13 28l67 108
c15 25 23 28 45 28h127c25 0 28 -19 19 -28l-100 -108c-14 -14 -22 -28 -47 -28z" />
    <glyph glyph-name="icircumflex" unicode="&#xee;" horiz-adv-x="481" 
d="M382 137c23 0 29 -11 29 -29v-79c0 -18 -6 -29 -29 -29h-283c-23 0 -29 11 -29 29v79c0 18 6 29 29 29h63v382h-61c-23 0 -29 11 -29 29v81c0 18 6 29 29 29h278c23 0 29 -11 29 -29v-81c0 -18 -6 -29 -29 -29h-60v-382h63zM326 735c-16 0 -26 11 -34 21l-51 62l-51 -62
c-8 -10 -19 -21 -35 -21h-88c-16 0 -22 16 -12 26l120 137c7 8 17 12 27 12h78c9 0 20 -4 27 -12l119 -137c10 -10 4 -26 -11 -26h-89z" />
    <glyph glyph-name="idieresis" unicode="&#xef;" horiz-adv-x="481" 
d="M382 137c23 0 29 -11 29 -29v-79c0 -18 -6 -29 -29 -29h-283c-23 0 -29 11 -29 29v79c0 18 6 29 29 29h63v382h-61c-23 0 -29 11 -29 29v81c0 18 6 29 29 29h278c23 0 29 -11 29 -29v-81c0 -18 -6 -29 -29 -29h-60v-382h63zM176 857c17 0 29 -6 29 -30v-66
c0 -23 -12 -29 -29 -29h-108c-18 0 -28 6 -28 29v66c0 24 10 30 28 30h108zM419 857c18 0 29 -6 29 -30v-66c0 -23 -11 -29 -29 -29h-108c-18 0 -28 6 -28 29v66c0 24 10 30 28 30h108z" />
    <glyph glyph-name="Eth" unicode="&#xd0;" horiz-adv-x="650" 
d="M327 658c119 0 269 -69 269 -225v-208c0 -157 -150 -225 -269 -225h-224c-23 0 -29 11 -29 29v226h-41c-18 0 -29 6 -29 29v74c0 23 11 29 29 29h41v242c0 18 6 29 29 29h224zM288 387c18 0 29 -6 29 -29v-74c0 -23 -11 -29 -29 -29h-57v-116h96c66 0 112 36 112 100v180
c0 63 -46 100 -112 100h-96v-132h57z" />
    <glyph glyph-name="eth" unicode="&#xf0;" horiz-adv-x="650" 
d="M327 658c119 0 269 -69 269 -225v-208c0 -157 -150 -225 -269 -225h-224c-23 0 -29 11 -29 29v226h-41c-18 0 -29 6 -29 29v74c0 23 11 29 29 29h41v242c0 18 6 29 29 29h224zM288 387c18 0 29 -6 29 -29v-74c0 -23 -11 -29 -29 -29h-57v-116h96c66 0 112 36 112 100v180
c0 63 -46 100 -112 100h-96v-132h57z" />
    <glyph glyph-name="ntilde" unicode="&#xf1;" horiz-adv-x="682" 
d="M579 658c18 0 29 -6 29 -29v-600c0 -18 -6 -29 -29 -29h-91c-25 0 -32 14 -45 34l-212 343v-348c0 -23 -11 -29 -29 -29h-99c-18 0 -29 6 -29 29v600c0 18 6 29 29 29h94c25 0 32 -14 45 -34l212 -342v347c0 23 11 29 29 29h96zM514 861c12 0 12 -14 12 -20v-1
c0 -59 -43 -110 -108 -110c-26 0 -59 10 -81 18c0 0 -59 21 -71 23c-13 2 -29 -3 -35 -23c-3 -10 -7 -18 -25 -18h-46c-12 0 -12 14 -12 20v1c0 59 43 110 108 110c26 0 59 -10 81 -18c0 0 59 -21 71 -23c13 -2 29 3 35 23c3 10 7 18 25 18h46z" />
    <glyph glyph-name="ograve" unicode="&#xf2;" horiz-adv-x="645" 
d="M591 447v-236c0 -158 -150 -226 -269 -226s-267 68 -267 226v236c0 158 148 226 267 226s269 -68 269 -226zM434 225v208c0 64 -46 101 -112 101c-65 0 -111 -37 -111 -101v-208c0 -64 46 -101 111 -101c66 0 112 37 112 101zM392 734h-98c-25 0 -33 14 -47 28l-100 108
c-9 9 -6 28 19 28h127c22 0 30 -3 45 -28l67 -108c6 -9 6 -28 -13 -28z" />
    <glyph glyph-name="oacute" unicode="&#xf3;" horiz-adv-x="645" 
d="M591 447v-236c0 -158 -150 -226 -269 -226s-267 68 -267 226v236c0 158 148 226 267 226s269 -68 269 -226zM434 225v208c0 64 -46 101 -112 101c-65 0 -111 -37 -111 -101v-208c0 -64 46 -101 111 -101c66 0 112 37 112 101zM350 738h-98c-19 0 -19 19 -13 28l67 108
c15 25 23 28 45 28h127c25 0 28 -19 19 -28l-100 -108c-14 -14 -22 -28 -47 -28z" />
    <glyph glyph-name="ocircumflex" unicode="&#xf4;" horiz-adv-x="645" 
d="M591 447v-236c0 -158 -150 -226 -269 -226s-267 68 -267 226v236c0 158 148 226 267 226s269 -68 269 -226zM434 225v208c0 64 -46 101 -112 101c-65 0 -111 -37 -111 -101v-208c0 -64 46 -101 111 -101c66 0 112 37 112 101zM408 734c-16 0 -26 11 -34 21l-51 62
l-51 -62c-8 -10 -19 -21 -35 -21h-88c-16 0 -22 16 -12 26l120 137c7 8 17 12 27 12h78c9 0 20 -4 27 -12l119 -137c10 -10 4 -26 -11 -26h-89z" />
    <glyph glyph-name="otilde" unicode="&#xf5;" horiz-adv-x="645" 
d="M591 447v-236c0 -158 -150 -226 -269 -226s-267 68 -267 226v236c0 158 148 226 267 226s269 -68 269 -226zM434 225v208c0 64 -46 101 -112 101c-65 0 -111 -37 -111 -101v-208c0 -64 46 -101 111 -101c66 0 112 37 112 101zM501 865c12 0 12 -14 12 -20v-1
c0 -59 -43 -110 -108 -110c-26 0 -59 10 -81 18c0 0 -59 21 -71 23c-13 2 -29 -3 -35 -23c-3 -10 -7 -18 -25 -18h-46c-12 0 -12 14 -12 20v1c0 59 43 110 108 110c26 0 59 -10 81 -18c0 0 59 -21 71 -23c13 -2 29 3 35 23c3 10 7 18 25 18h46z" />
    <glyph glyph-name="odieresis" unicode="&#xf6;" horiz-adv-x="645" 
d="M591 447v-236c0 -158 -150 -226 -269 -226s-267 68 -267 226v236c0 158 148 226 267 226s269 -68 269 -226zM434 225v208c0 64 -46 101 -112 101c-65 0 -111 -37 -111 -101v-208c0 -64 46 -101 111 -101c66 0 112 37 112 101zM254 860c17 0 29 -6 29 -29v-65
c0 -23 -12 -29 -29 -29h-110c-19 0 -29 6 -29 29v65c0 23 10 29 29 29h110zM501 860c18 0 29 -6 29 -29v-65c0 -23 -11 -29 -29 -29h-110c-18 0 -29 6 -29 29v65c0 23 11 29 29 29h110z" />
    <glyph glyph-name="oslash" unicode="&#xf8;" horiz-adv-x="645" 
d="M591 447v-236c0 -158 -150 -226 -269 -226c-25 0 -50 3 -76 9l-20 -53c-5 -12 -12 -27 -31 -27h-63c-25 0 -26 18 -23 28l37 95c-53 37 -91 94 -91 174v236c0 158 148 226 267 226c23 0 47 -3 71 -8l24 61c5 12 12 27 31 27h62c25 0 26 -18 23 -28l-40 -101
c56 -37 98 -95 98 -177zM434 225v208c0 11 -1 21 -4 30l-132 -338c7 -1 15 -1 24 -1c66 0 112 37 112 101zM211 225c0 -7 0 -14 1 -20l129 328c-6 0 -13 1 -19 1c-65 0 -111 -37 -111 -101v-208z" />
    <glyph glyph-name="Oslash" unicode="&#xd8;" horiz-adv-x="645" 
d="M591 447v-236c0 -158 -150 -226 -269 -226c-25 0 -50 3 -76 9l-20 -53c-5 -12 -12 -27 -31 -27h-63c-25 0 -26 18 -23 28l37 95c-53 37 -91 94 -91 174v236c0 158 148 226 267 226c23 0 47 -3 71 -8l24 61c5 12 12 27 31 27h62c25 0 26 -18 23 -28l-40 -101
c56 -37 98 -95 98 -177zM434 225v208c0 11 -1 21 -4 30l-132 -338c7 -1 15 -1 24 -1c66 0 112 37 112 101zM211 225c0 -7 0 -14 1 -20l129 328c-6 0 -13 1 -19 1c-65 0 -111 -37 -111 -101v-208z" />
    <glyph glyph-name="ugrave" unicode="&#xf9;" horiz-adv-x="661" 
d="M566 658c18 0 29 -6 29 -29v-428c0 -157 -146 -216 -265 -216s-264 59 -264 216v428c0 23 11 29 29 29h99c18 0 29 -6 29 -29v-406c0 -63 41 -99 107 -99s108 36 108 99v406c0 23 11 29 29 29h99zM403 734h-98c-25 0 -33 14 -47 28l-100 108c-9 9 -6 28 19 28h127
c22 0 30 -3 45 -28l67 -108c6 -9 6 -28 -13 -28z" />
    <glyph glyph-name="uacute" unicode="&#xfa;" horiz-adv-x="661" 
d="M566 658c18 0 29 -6 29 -29v-428c0 -157 -146 -216 -265 -216s-264 59 -264 216v428c0 23 11 29 29 29h99c18 0 29 -6 29 -29v-406c0 -63 41 -99 107 -99s108 36 108 99v406c0 23 11 29 29 29h99zM360 728h-98c-19 0 -19 19 -13 28l67 108c15 25 23 28 45 28h127
c25 0 28 -19 19 -28l-100 -108c-14 -14 -22 -28 -47 -28z" />
    <glyph glyph-name="ucircumflex" unicode="&#xfb;" horiz-adv-x="661" 
d="M566 658c18 0 29 -6 29 -29v-428c0 -157 -146 -216 -265 -216s-264 59 -264 216v428c0 23 11 29 29 29h99c18 0 29 -6 29 -29v-406c0 -63 41 -99 107 -99s108 36 108 99v406c0 23 11 29 29 29h99zM422 737c-16 0 -26 11 -34 21l-51 62l-51 -62c-8 -10 -19 -21 -35 -21
h-88c-16 0 -22 16 -12 26l120 137c7 8 17 12 27 12h78c9 0 20 -4 27 -12l119 -137c10 -10 4 -26 -11 -26h-89z" />
    <glyph glyph-name="udieresis" unicode="&#xfc;" horiz-adv-x="661" 
d="M566 658c18 0 29 -6 29 -29v-428c0 -157 -146 -216 -265 -216s-264 59 -264 216v428c0 23 11 29 29 29h99c18 0 29 -6 29 -29v-406c0 -63 41 -99 107 -99s108 36 108 99v406c0 23 11 29 29 29h99zM260 867c17 0 29 -6 29 -29v-65c0 -23 -12 -29 -29 -29h-110
c-19 0 -29 6 -29 29v65c0 23 10 29 29 29h110zM507 867c18 0 29 -6 29 -29v-65c0 -23 -11 -29 -29 -29h-110c-18 0 -29 6 -29 29v65c0 23 11 29 29 29h110z" />
    <glyph glyph-name="yacute" unicode="&#xfd;" horiz-adv-x="604" 
d="M575 658c19 0 21 -17 16 -28l-206 -383v-218c0 -23 -11 -29 -29 -29h-100c-19 0 -29 6 -29 29v218l-214 383c-5 11 -3 28 16 28h115c23 0 33 -3 47 -30l117 -215l113 215c13 27 23 30 46 30h108zM337 731h-98c-19 0 -19 19 -13 28l67 108c15 25 23 28 45 28h127
c25 0 28 -19 19 -28l-100 -108c-14 -14 -22 -28 -47 -28z" />
    <glyph glyph-name="Thorn" unicode="&#xde;" horiz-adv-x="628" 
d="M328 563c172 0 262 -94 262 -232c0 -139 -92 -231 -263 -231h-96v-71c0 -23 -11 -29 -29 -29h-99c-18 0 -29 6 -29 29v602c0 23 11 29 29 29h99c18 0 29 -6 29 -29v-68h97zM327 235c78 0 112 43 112 93c0 52 -34 94 -112 94h-96v-187h96z" />
    <glyph glyph-name="thorn" unicode="&#xfe;" horiz-adv-x="628" 
d="M328 563c172 0 262 -94 262 -232c0 -139 -92 -231 -263 -231h-96v-71c0 -23 -11 -29 -29 -29h-99c-18 0 -29 6 -29 29v602c0 23 11 29 29 29h99c18 0 29 -6 29 -29v-68h97zM327 235c78 0 112 43 112 93c0 52 -34 94 -112 94h-96v-187h96z" />
    <glyph glyph-name="afii10076" unicode="&#x43a;" horiz-adv-x="654" 
d="M622 658c19 0 19 -19 10 -28l-225 -244l215 -354c8 -13 4 -32 -15 -32h-122c-24 0 -37 11 -50 32c0 0 -89 150 -143 240l-62 -65v-178c0 -23 -11 -29 -28 -29h-99c-19 0 -29 6 -29 29v600c0 23 10 29 29 29h99c17 0 28 -6 28 -29v-223l207 228c20 22 27 24 50 24h135z
" />
  </font>
</defs>
</svg>
